<svg xmlns="http://www.w3.org/2000/svg" version="1.1" xmlns:xlink="http://www.w3.org/1999/xlink" xmlns:svgjs="http://svgjs.dev/svgjs" width="100" height="100"><svg width="100" height="100" viewBox="0 0 100 100" version="1.1" id="SvgjsSvg1125" sodipodi:docname="flora-stamp.svg" inkscape:version="1.3.2 (091e20e, 2023-11-25)" xmlns:inkscape="http://www.inkscape.org/namespaces/inkscape" xmlns:sodipodi="http://sodipodi.sourceforge.net/DTD/sodipodi-0.dtd" xmlns="http://www.w3.org/2000/svg" xmlns:svg="http://www.w3.org/2000/svg">
  <sodipodi:namedview id="SvgjsSodipodi:namedview1124" pagecolor="#ffffff" bordercolor="#000000" borderopacity="0.25" inkscape:showpageshadow="2" inkscape:pageopacity="0.0" inkscape:pagecheckerboard="0" inkscape:deskcolor="#d1d1d1" inkscape:zoom="1.2061886" inkscape:cx="-35.649483" inkscape:cy="-4.9743465" inkscape:window-width="1792" inkscape:window-height="989" inkscape:window-x="0" inkscape:window-y="25" inkscape:window-maximized="0" inkscape:current-layer="svg1"></sodipodi:namedview>
  <defs id="SvgjsDefs1123"></defs>
  <path id="SvgjsPath1122" style="fill:#0c1410;fill-opacity:1;stroke-width:0;stroke-dasharray:none;stroke:none" d="M 39.687254,0.01042098 C 33.060942,-0.09124178 27.44411,3.4198178 22.444239,7.0044892 16.719204,11.095898 12.300114,15.945865 8.0548801,21.742484 5.0898347,27.17419 1.380441,32.275085 0.63848256,38.66276 c -0.83263702,6.734894 -1.25456488,15.096033 1.34789884,24.137527 3.0103183,10.718842 5.4834687,10.549734 8.9248756,17.216932 6.167144,10.081133 17.846168,16.120329 29.528644,18.743975 4.00068,1.10074 6.279794,0.369704 10.936203,1.072742 6.426298,0.634414 12.881477,-0.573824 18.695597,-3.197604 5.558216,-1.238693 8.752148,-7.069862 13.460933,-9.561499 4.843606,-4.318385 9.522118,-8.03557 11.373397,-14.053496 3.438552,-6.678919 5.410919,-14.374632 4.981816,-21.947433 C 100.34264,48.133473 99.331826,42.545018 98.336685,38.72653 96.214498,29.976397 91.611329,21.149446 84.38326,15.495036 79.753339,11.547851 75.027892,7.3750893 70.335969,4.5220146 64.273578,0.88797805 56.25768,-0.09710067 49.095396,0.10289306 45.287157,0.19587058 45.891039,0.35348211 41.525456,0.01848777 L 40.586273,0 Z" inkscape:label="background"></path>
  <path id="SvgjsPath1121" style="fill:#65d9be;fill-opacity:1;stroke:none;stroke-width:0;stroke-dasharray:none" class="st2" d="m 48.810366,18.045311 c -2.466467,0.05747 -2.007193,0.229707 -3.613266,1.26405 -1.164113,0.744952 -1.916398,1.047948 -2.926389,1.954303 -0.663654,0.595547 -0.502172,0.476768 -1.145918,1.149293 -0.816803,0.853355 -1.319744,3.096685 -1.319744,4.711927 v 2.011682 c 0,1.581673 0.246433,2.635453 0.688562,3.964298 0.573596,1.723906 2.459183,4.584586 0.803322,4.941449 -0.588338,0.204891 -1.035588,-0.698365 -2.295207,-1.732852 -3.513113,-2.885124 -7.628329,-7.813481 -12.733344,-6.894063 -3.384223,0.632098 -5.162859,2.815484 -6.080614,5.97598 -2.35175,8.389665 10.349132,9.628488 15.454144,12.501666 1.349621,0.766483 1.665284,1.885704 0.465082,3.217363 -0.564821,0.457329 -1.572764,1.582179 -3.743126,3.509811 -2.539953,2.255888 -5.998313,4.250704 -7.547027,8.560464 l -0.32691,0.793402 c -0.623269,2.735957 -1.153001,5.801905 -0.05738,7.987663 0.700763,1.407889 0.172858,0.402808 2.180447,3.103593 2.00759,2.700782 4.757829,4.845266 7.969972,4.672875 3.212144,-0.172378 6.888257,-0.417399 10.38002,-4.954169 4.648407,-6.39893 3.657206,-12.854417 6.449975,-12.990879 1.415643,-0.06917 1.596431,1.251096 2.177734,2.346921 0.313863,0.591668 0.614054,2.188014 1.108181,3.160418 2.170756,4.215259 2.969621,11.7359 13.361365,10.547416 1.986473,-0.244836 6.584551,-2.946633 8.044774,-5.014572 1.599514,-2.2652 1.453391,-4.585262 1.375311,-6.389446 -0.240111,-3.310588 -0.154245,-5.238679 -6.891603,-10.711295 -2.12231,-1.723906 -3.516812,-2.724374 -6.120985,-4.450043 -0.802582,-0.496687 -1.195085,-1.208607 -1.282043,-1.831335 0.05735,-0.229854 -0.03235,-1.185815 0.885412,-1.530595 0.917757,-0.344781 2.946515,-0.24831 5.94729,-0.420688 2.015562,-0.114935 4.925683,-1.07141 5.556642,-1.416192 0.172066,-0.114934 3.158049,-1.762883 3.67205,-2.780645 1.057597,-2.094069 0.998517,-2.909437 0.53677,-4.685309 -1.974437,-7.594123 -11.529006,-9.596157 -18.068014,-4.826688 -0.630958,0.459709 -1.318282,1.607749 -1.94924,2.009996 -0.05737,0.05747 -1.090244,0.632952 -1.147605,0.575488 -0.05737,-0.05746 -0.803404,-0.05815 -1.032843,-0.69025 -0.229439,-0.632098 0.631162,-6.493609 0.573801,-7.987662 -0.05736,-0.861953 0.287975,-1.321417 -1.432816,-4.826688 -1.720792,-3.505276 -3.958961,-4.88415 -7.916781,-4.826687 z m 1.319745,25.043084 c 1.012845,-5.27e-4 2.057188,0.265775 3.068154,0.869142 6.137489,3.677666 3.440578,10.744894 -2.811631,12.181481 -0.862176,0.178396 -2.181899,0.03399 -2.641178,-0.119825 -1.815779,-0.608009 -3.036413,-2.178114 -3.95417,-3.787093 -1.866055,-4.143478 1.949828,-9.141421 6.338825,-9.143705 z" sodipodi:nodetypes="ccscsscccccccscccsscssccscsccsccccccsscscsccccs" inkscape:label="flower"></path>
</svg><style>@media (prefers-color-scheme: light) { :root { filter: none; } }
@media (prefers-color-scheme: dark) { :root { filter: none; } }
</style></svg>