<?xml version="1.0" standalone="no"?>
<!DOCTYPE svg PUBLIC "-//W3C//DTD SVG 20010904//EN"
 "http://www.w3.org/TR/2001/REC-SVG-20010904/DTD/svg10.dtd">
<svg version="1.0" xmlns="http://www.w3.org/2000/svg"
 width="260.000000pt" height="260.000000pt" viewBox="0 0 260.000000 260.000000"
 preserveAspectRatio="xMidYMid meet">
<metadata>
Created by potrace 1.14, written by Peter Selinger 2001-2017
</metadata>
<g transform="translate(0.000000,260.000000) scale(0.100000,-0.100000)"
fill="#000000" stroke="none">
<path d="M1095 2584 c-552 -84 -998 -534 -1079 -1085 -94 -637 271 -1232 877
-1434 678 -226 1415 146 1642 828 226 678 -146 1415 -828 1642 -185 61 -413
80 -612 49z m1075 -788 l0 -54 -217 -4 c-250 -6 -300 -16 -365 -77 -33 -30
-41 -45 -45 -84 l-6 -47 167 0 166 0 0 -60 0 -60 -165 0 -165 0 0 -270 0 -270
-80 0 -80 0 0 270 0 270 -241 0 c-146 0 -248 -4 -260 -10 -22 -12 -25 -52 -6
-68 7 -7 59 -18 116 -27 164 -25 214 -63 227 -178 9 -79 -9 -138 -57 -181 -66
-60 -105 -66 -436 -66 l-293 0 0 60 0 60 270 0 c287 0 326 5 349 48 14 26 14
77 1 101 -13 25 -49 38 -160 56 -148 25 -180 55 -180 166 0 75 16 100 83 130
49 22 66 24 320 27 l267 4 0 51 c1 127 92 215 263 252 41 9 140 14 295 14
l232 1 0 -54z"/>
</g>
</svg>
