<?xml version="1.0" encoding="UTF-8"?><svg id="b" xmlns="http://www.w3.org/2000/svg" viewBox="0 0 868.37 337.95"><defs><style>.d{fill:#eefafa;}</style></defs><g id="c"><path class="d" d="m863.94,318.45c-2.11-.78-8.93-6.25-11.37-6.92-8.2-2.44-7.91-15.07-16.33-16.62-18.1-3.24-15.28,1.99-23.49-4.52-2.28-1.81-2.44-5.54-4.43-7.53-7.12-6.8-14.51-7.17-23.07-6.04-5.18-6.39-12.07-4.4-19.01-6.65-14.42-4.68-30.21-3.85-45.32-3.71-2.06-4.27-1.4-9.47,1.07-17.31,1.33-3.99,1.44-8.64,1-12.85-.89-8.31-2.99-16.62-3.77-25.04-1.09-12.23-9.4-22.47-20.11-26.87-1.01-.88-2.2-1.65-3.62-2.27-11.71-5.15-23.31-11.57-35.29-4.63-4.69,2.72-11.26,4.52-16.59,5.65-6.59,1.4-13.07-.94-19.84-.8-6.49.14-10.56,3.28-16.36-.72-4.09-2.81-8.44-4.7-12.78-6.59-1.04-1.58-1.88-3.3-2.45-5.21-1.66-5.1-3.88-9.97-6.65-14.52-4.21-6.87-6.09-13.74-4.21-21.94,3.66-15.73,4.71-33.8-9.7-41.78-3.88-2.11-6.54-4.32-8.75-8.86-6.98-14.29-17.73-31.93-29.25-32.37-7.53-.33-12.2,3.07-19.4,5.62-9.86,3.55-15.96,8.2-24.6,2.22-2.01-1.34-5.89-3.01-10.63-4.01-.34-.62-.7-1.31-1.11-2.11-3.39-6.6-6.23-6.91-13.61-6.27-4.64.4-5.7.6-8.58-2.89-2.85-3.46-4.78-5.13-8.21-7.91-.69-.56-1.29-1.25-1.85-1.98-3.23-9.04-9.79-13.63-20.49-24.33-13.85-13.85-46.32-3.66-52.96-6.32-24.71-9.97-57.62,13.31-62.49,39.46-2.87,15.83.89,25.14,6.14,38.15.15,2.3.18,4.39-.47,5.35-1.45,2.11-4.98,1.27-5.98,4.19-.91,2.68,1.61,5,2.07,7.29.93,4.64-.97,3.95-3.36,7.77-.19.31-.36.6-.51.88-3.92,3.46-7.42,8.21-7.42,16.5,0,7.2,3.43,10.08,5.98,12.63,2.99,3.77,3.66,8.31.33,11.19-4.72,4.01-7.72,8.94-10.38,14.12-8.06.25-11.7-11.16-20.84-8.14-7.23,2.39-11.11,12.19-18.54,13.93-5.07,1.19-12.31-1.63-17.92-1.26-5.28.35-9.13,3.23-13.46,4.99-2.13-.07-4.26-.11-6.39-.15-1.36-.02-2.98.22-4.72.6-5.08-1.42-10.38-4.14-15.29-4.2-7.15-.09-11.77,2.43-16.6,6.61-17.03-1.93-26.17-.54-40.84,15.98-17.72,16.04-1.13,25.53,1.09,36.83,1.77,8.98-14.87,4.9-15.93,21.2-.08.73-.17,1.47-.27,2.21-2.53.79-5.12,1.49-7.18,2.82-4.39,2.85-3.47,4.34-9.15,4.61-3.99.19-9.03-1.55-13.4-.03-8.6,2.98-6.87,14.63-14.48,17.96-7.8,3.41-14.29-2.63-21.64,3.67-4.78,4.1-9.75,5.51-15.41,9.27-14.29,3.55-22.07,14.42-36.58,16.86C2.22,304.64,0,315.08,0,320.73c-.11,5.43,3.66,6.98,7.87,7.42,10.97,1,22.16,3.21,32.91,1.99,18.17-1.99,14.62-6.04,32.68-4.05,7.31.78,14.74-.66,22.16-.44,18.39.55,37.23-.89,55.07,2.55,26.59,5.1,52.74,3.43,79.23,1.22,26.93-2.22,53.74-2.77,80.56.55,4.43.55,8.86.11,13.3.11,7.76.11,15.51-.55,23.16.33,16.95,1.77,33.68,4.21,50.53,6.65,9.64,1.33,18.95,1.55,28.26-2.22,4.32-1.77,9.31-2.99,13.96-3.1,19.17-.22,38.34.22,57.51.11,10.64,0,21.27-.44,31.91-.89,5.54-.22,11.08-1.55,16.51-1.33,20.28,1,40.55,2.55,60.83,3.43,7.31.33,14.63-.11,21.83-1.44,14.52-2.55,28.7-7.09,43.32-8.31,3.21-.33,6.54.11,9.64.89,18.73,4.65,37.67,1.88,56.4,3.21,10.64.78,21.27.33,32.02.22,10.3-.11,21.16,1.55,30.69-1.33,19.83-3.1,39.11-2.11,60.94-2.66,2.66-.33,4.88.78,6.87-2.44,1.11-1.66-2.33-2.11-4.21-2.77Z"/></g></svg>