<?xml version="1.0" encoding="UTF-8"?><svg id="b" xmlns="http://www.w3.org/2000/svg" viewBox="0 0 1119.48 316.52"><defs><style>.g{fill:#dae7f3;}</style></defs><g id="e"><path class="g" d="m440.6,102.21c0-12.7,9.1-16.2,13.7-20.4,4.3-3.9,4.5-7.3,2.2-13.1-5.6-14.2-10.2-18.3-7.3-34.3,4.4-23.6,34.1-41,56.4-32,6,2.4,35.3-6.8,47.8,5.7,13.5,13.5,19.7,12.6,20.6,30.6.4,8.6,5.8,8.4,14,6.8,9.8-2.3,19.7-2,23.3.4,7.8,5.4,13.3,1.2,22.2-2,6.5-2.3,11-2.1,17.8-1.8,10.4.4,20.1,11.8,26.4,24.7,2,4.1,4.4,6.1,7.9,8,13,7.2,19.3,20.2,16,34.4-1.7,7.4,0,13.6,3.8,19.8,2.5,4.1,4.5,8.5,6,13.1,3.5,11.7,10.5,19.4,22.7,21.7,4.2.8,8.6,1.3,12.8,2.2,7.5,1.6,14.4.4,21.3-3,5-2.5,10.5-4.4,15.9-5.8,16.4-4,33.2,8.7,34.7,25.6.7,7.6,2.6,15.1,3.4,22.6.4,3.8.3,8-.9,11.6-4.1,13-2.7,18,9.4,24.4,4.2,2.2,9.4,3,14.3,3.5,4.9.5,10,.1,15-.3,16.5-1.2,28.5,7.6,39.5,18.1,1.8,1.8,3.2,4.3,4,6.8,3.3,10.3,10.3,15.8,20.9,17.7,7.6,1.4,12.5,3.8,19.9,6,2.2.6,3.2,1.9,5.1,2.6,1.7.6,4.8,1,3.8,2.5-1.8,2.9-3.8,1.9-6.2,2.2-19.7.5-37.1-1.3-55,1.5-8.6,2.6-18.4,1.1-27.7,1.2-9.7.1-19.3.5-28.9-.2-16.9-1.2-34,1.3-50.9-2.9-2.8-.7-5.8-1.1-8.7-.8-13.2,1.1-26,5.2-39.1,7.5-6.5,1.2-13.1,1.6-19.7,1.3-18.3-.8-36.6-2.2-54.9-3.1-4.9-.2-9.9,1-14.9,1.2-9.6.4-19.2.8-28.8.8-17.3.1-34.6-.3-51.9-.1-4.2.1-8.7,1.2-12.6,2.8-8.4,3.4-16.8,3.2-25.5,2-15.2-2.2-30.3-4.4-45.6-6-6.9-.8-13.9-.2-20.9-.3-4,0-8,.4-12-.1-24.2-3-48.4-2.5-72.7-.5-23.9,2-47.5,3.5-71.5-1.1-16.1-3.1-33.1-1.8-49.7-2.3-6.7-.2-13.4,1.1-20,.4-16.3-1.8-32.4-2.1-48.8-.3-9.7,1.1-19.8-.9-29.7-1.8-3.8-.4-7.2-1.8-7.1-6.7,0-5.1,2-7.3,7.7-8.2,13.1-2.2,26.4-3.8,39.3-7,6.2-1.5,10.1-14.6,15.2-18.7,10.3-8.3,23.4-5.3,35.8-9.7,8.1-2.9,16.1-6.5,23.4-10.9,8.8-5.3,11.2-14.9,12.2-24.1.9-8.1.4-16.7-1.2-24.8-2-10.2,1.1-17.7,9-23.6,17.3-12.9,30.6-15.4,53.8-12.3,5.6.7,16-8.9,21.7-8.8,10.6.2,21.2.4,31.4,4.4,11.1,4.3,21.6.1,31.8-4.3,2-.9,3.7-3.1,4.7-5.1,2.9-5.9,5.8-11.7,11.1-16.2,3-2.6,2.4-6.7-.3-10.1-2.3-2.3-5.4-4.9-5.4-11.4h0Z"/></g></svg>