<?xml version="1.0" encoding="UTF-8"?><svg id="b" xmlns="http://www.w3.org/2000/svg" viewBox="0 0 846.77 553.87"><defs><style>.d{fill:#eefafa;}</style></defs><g id="c"><path class="d" d="m841.75,499.8c-1.17-.84-1.63-2.36-1.04-3.68.64-1.44,1.24-2.9,1.76-4.38,4.2-12.3-1.4-20-14.4-21.1-1.16-.11-2.21-.54-3.15-1.22-.59-.43-.95-1.09-1.12-1.8-.54-2.34-1.55-4.56-3.07-6.68-.3-.41-.51-.89-.57-1.39-.26-2.34-.15-4.8.4-7.11,1.12-4.67,1.08-8.85-.35-12.7-.55-4.51-2.36-9.56-4.81-12.01-3.5-3.43-9.81-4.17-14.04-3.56-2.21.43-4.17,1.42-6.22,1.9-.94.05-1.83.13-2.68.25-1.88-.12-3.95-.95-6.42-3.13-4.35-4.35-7.85-8.03-5.03-16.37,1.29-3.68,2.88-7.24,4.23-10.85,1.66-4.6,4.42-8.28,8.59-10.79,3.37-1.96,5.34-4.91,6.13-8.71.86-4.23,2.15-8.4,2.39-12.63.25-3.8.12-7.97-1.23-11.41-1.45-3.73-2.99-7.45-4.7-11.08-.34-2.19-.86-4.32-1.63-6.3-.34-.87-.68-1.74-1.03-2.61-.19-.47-.25-.98-.19-1.48.13-1,.23-2.01.29-3.02.4-6.2.2-13-2-18.6-4.7-12.1-13-8.09-19.8-19.09-9.1-14.7-13.66-24.32-31.26-13.32-.11.07-.21.19-.31.34-.64.42-1.28.86-1.92,1.3-3.22,2.23-5.4,5.18-9.36,5.17-.23,0-.48-.01-.74-.03-4.72-4.16-10.31-7-16.82-5.68,0,0-.02,0-.03,0-.2-.3-.39-.6-.59-.9-.4-.57-.61-1.25-.57-1.95.08-1.16.31-2.41.7-3.74,3.4-11.4-1-19.1-8.8-26.5-10.4-9.9-6.22-22.79-16.94-32.24-14.47-12.76-13.98-1.23-26.69-7-1.89-4.54-5.73-7.67-10.25-9.55-6.13-2.51-13.01-5.2-19.62-4.48-18.41,2.01-20.34,14.23-24.82,15.83-8.34,2.94-6.39-10.67-14.98-11.35-3.37-.31-6.56-2.21-9.93-2.51-6.13-.55-10.12-3.07-12.2-9.2-.49-1.44-1.66-3.11-3.26-4.85.67-6.18,2.06-12.34,4.32-18.47,1.68-2.24,3.78-4.38,5.6-5.82,1.63-1.28,2.96-2.91,3.81-4.8.25-.56.47-1.19.63-1.98.35-1.78.63-3.52.81-5.36.19-1.94.25-3.47-.07-4.73.15-1.93-.45-3.77-2.27-5.51-.1-.1-.21-.2-.31-.3-.89-.89-1.12-2.24-.59-3.39.16-.34.32-.68.48-1.02,3.8-8.1,3.7-15.1-2.5-21-8.3-8-11.1-17.9-11.9-28.7-.9-12.1-8.8-19.9-18.7-24-10-4.1-21.2-6.2-32-7.3-7.7-.8-16.84,3.94-22.91,8.75-22.54,17.88-35.66,7.43-49.66,6.33-5.5-.5-10.7-3.6-16.2-4.1-10-.9-8.84-12.79-12.24-22.79-2.81-8.28-19.36-21.2-32.14-26.98-2.65-1.42-5.72-2.44-8.43-3.33-4.34-1.43-7.73-2.27-12.08-2.13-3.73.12-7.54.45-11.18-.39-5.43-1.26-10.78-3.8-16.62-1.96-5.6,1.76-10.22,7.68-16.69,6.64-3.14-.5-5.69-2.97-9.32-2.28-2.86.55-4.92,2.46-7.08,4.28-3.48,2.93-5.84,5.03-9.74,6.59-5.09,2.02-9.03,3.06-12.72,7.63-1.53,1.9-2.98,4.17-4.51,6.33-6.53,5.34-11.12,12.16-14.59,20.5-.21.49-.43.97-.64,1.46-1.21,1.04-2.41,2.1-3.51,3.27-3.23,3.39-5,7.66-7.47,11.55-1.54,2.42-3.65,4.53-4.82,7.07-.81,1.76-1.48,3.63-2.15,5.48-1.22,1.2-2.4,2.47-3.53,3.82-3.11,3.73-6.21,7.47-9.29,11.23-.47.58-1.14.96-1.88,1.07-.13.02-.26.04-.39.05-5.2.7-10.3,2.7-15.6,3.3-13.4,1.5-21.5,9.6-27.2,20.9-.76,1.58-1.52,3.15-2.28,4.73-.01.01-.02.03-.03.04-1.38,1.92-2.3,3.93-4.22,5.5-2.17,1.78-3.63,3.87-5.69,5.81-1.45,1.36-3.09,2.74-3.98,4.58-1.52,3.16-1.7,6.36-3.77,9.35-2.78,4.01-3.93,6.42-3.52,11.49.3,3.61,2.15,6.75,2.27,10.39.13,4.14,1.94,5.16,4.1,8.93.7,1.23.98,2.74,1.9,3.81.7.81,1.56,1.26,2.43,1.66.14.38.28.76.43,1.15.62,1.61.84,3.45,1.62,4.9.43.8,1.36,1.43,1.79,2.16,3.42,5.8,2.08,11.7,3.8,17.61,1.08,3.71,2.49,6.87,4.68,10.09,1.86,2.74,4.43,4.38,6.58,6.71,1.64,1.78,2.04,5.22,3.31,7.19.33.13.63.29.86.5.76.69.79,1.68,1.51,2.44,1.74,1.83,4.71,1.88,6,4.19,1.02,1.82.52,4.55,1.84,6.17,1.05,1.29,2.89,1.64,3.79,3.21,2,3.47-1.87,6.4-4.99,6.26-3.1-.14-4.19,1.29-6.98,2.4-3.22,1.28-5.04,1.9-8.38,1.21-2.16-.44-4.63-.63-6.96-.41-2.19.21-3.08,1.71-4.96,2.16-2.69.65-5.79-.02-8.53.57-1.69.37-3.38,1.28-4.77,2.53-2.57,5.24-3.73,11.37-9.03,14.91-1.04.67-2.31.79-3.41,1.34-4.69,2.31-9.5,4.45-14.01,7.13-5,2.98-6.15,3.23-9.63-1.34-3.11-4.08-6.82-5.12-11.64-5.06-2.7.06-11.39,2.93-18.11,7.18-7.66,4.84-17.5,16.61-18.8,18.18-9.12,10.99-22.81,9.56-23.35,23.47-.13,3.3,1.02,6.07,2.53,8.64.68,1.16.47,2.64-.49,3.58-1.83,1.8-3.47,4.1-5.04,7.02-3.9,7.28-3.82,16.49-9.09,22.6-3.4,3.94-6.37,4.62-8.44,10.22-.66,1.8-2.6,11.27.16,18.9,2.09,5.77,6.59,5.79,9.35,11,2.94,5.55,3.91,4.32,9.03,7.42,2.5,1.51,6.89,2.42,8.62,7.99,1.14,3.66.85,11.43,2.23,18.3,2.67,13.36-6.9,14.93-3,27.06,1.74,5.43-13.24,9.54-17.2,13.5-7.64,7.64-2.8,13.73-2.8,17.13,0,7.94-12,14.8-13.96,15.11-3.42.54-7.6,3.17-10.01,5.27-2.71,2.37-3.15,7.64-7.16,9.15-5.19,2.02-3.08,5.69,2.1,7.47,6.03,2.07,14.67,1.57,21,.84,1.08-.13,38.57-.32,56.27-.19.28,0,.54.05.81.13,10.54,3.26,21.33,2.38,32.11,1.03.97-.12,1.93-.25,2.9-.37.18,0,.36-.02.54-.02,5.1.24,10.2.57,15.27,1.07,13.47,1.33,26.94,2.25,40.31,1.39.12,0,.24,0,.36,0,10.08.68,20.15,1.35,30.23,2.03,1.22.06,2.44-.12,3.66-.24,10.77-1.27,21.48-3.86,32.37-1.03.15.03.3.05.45.08.31.02.65-.02.99-.02,9.32.43,18.64,1.04,27.96,1.34,10.97.37,21.93.91,32.84.61,7.25-.18,14.44-1.52,21.63-2.74,3.39-.58,6.72-1.42,10.03-2.34.32-.09.65-.12.98-.1,7.28.47,14.56.74,21.8.74,14.13,0,28.23-.4,42.31-.63.12,0,.25.01.37.02.82.1,1.63.12,2.42.04l2.7-.13c7.4-.09,14.8-.12,22.2,0,14.9.3,30-1.6,44.7,3,15.1,4.8,30.2,4.2,45.3-.2,15.1-4.4,30.3-4.6,45.3.2,12,3.8,24.2,3.7,36.6,3.2,9.2-.3,18.7-.4,27.7,1.5,12.6,2.7,25,2.1,36.4-2.4,18.5-7.3,36.5-6.1,54.8-1.1,11.5,3.2,23.1,4.4,34.6,1.6,10.6-2.5,21-2.2,31.7-1.8,9.1.4,18.4-1.3,27.6-2.4,4.2-.5,8.3-2.2,12.5-2.3,4.4-.1,7.9-1,10-5.1,3.7-7.1,8-13.9,10.6-21.3,2.74-8.03,1.3-14.1-3.64-17.65Z"/></g></svg>