<?xml version="1.0" encoding="UTF-8"?><svg id="b" xmlns="http://www.w3.org/2000/svg" viewBox="0 0 1121.81 523.74"><defs><style>.g{fill:#dae7f3;}</style></defs><g id="e"><path class="g" d="m147.11,512.01c11.8-10.1,21.9-19.7,32.9-28,9.2-6.9,17.1-14.7,23.1-24.5,2.7-4.5,3.9-9.1,2.5-14.3-1.5-5.8-2.9-11.6-4-17.5-.8-4.2-1.8-8.6-1.2-12.8,1.6-12.7-4.7-21.6-13.2-29.6-3.9-3.6-8.1-6.9-12.5-9.9-4.9-3.4-6.3-7.8-4.5-13,2.3-6.9,4.4-14.1,8.2-20.2,4.2-6.7,10-12.5,15.4-18.3,5.6-5.9,12.4-6.2,20.3-4.5,11.9,2.6,24.1,4.3,36.3,5.6,7.5.8,13-4.2,18.8-8.2,6.3-4.3,9.2-10.1,8.6-17.9-.5-7.9,2.7-13.8,9.6-18.5,4.8-3.3,8.6-8.2,12.2-13,7.9-10.3,10.8-11.6,22.9-7.5,7.1,2.4,13.2,1.5,18.5-3.5,7.2-6.9,14.4-13.9,21-21.4,5.8-6.5,5.4-9.9-.3-16.6-9.2-10.9-26.9-8.6-41.9-23.6-16.4-16.4-5.6-32.6-16.3-43.4-8.6-8.7-9.3-17.9-4.2-28.2,1.3-2.7,2.6-5.4,3.9-8.1,5.7-11.3,13.8-19.4,27.2-20.9,5.3-.6,10.4-2.6,15.6-3.3,9.2-1.2,15.1-6.3,19-14.4,4.9-10.2,10.3-20.2,14.7-30.6,5.2-12.5,12.9-21.6,25.9-27.4,12.8-5.7,25.5-11,39.1-14.9,16.2-4.6,32.3-4,48.5-2.5,11.9,1.1,38,19.3,41.6,29.9,3.4,10,9.9,14.1,19.9,15,5.5.5,10.7,3.6,16.2,4.1,14,1.1,27.8.4,41.4-4.4,7.3-2.6,15.8-3.7,23.5-2.9,10.8,1.1,22,3.2,32,7.3,9.9,4.1,17.8,11.9,18.7,24,.8,10.8,3.6,20.7,11.9,28.7,6.2,5.9,6.3,12.9,2.5,21-11.1,23-9.4,46.6-1.1,69.9,3.3,9.2,16.6,15.5,25.7,12,6.4-2.4,12.7-6.1,18.1-10.3,8.2-6.5,17.5-9.9,27.2-11.8,11.3-2.3,20.9,3.1,28.9,10.6,10.4,9.8,20.1,20.4,30.5,30.3,7.8,7.4,12.2,15.1,8.8,26.5-2.6,8.7,1.7,13.8,10.8,15.6,5.8,1.1,11.3.6,16.4-2.5,1.1-.7,2.2-1.4,3.4-2.1,17.6-11,21.2-6.9,30.3,7.8,6.8,11,12.1,23,16.8,35.1,2.2,5.6,2.4,12.4,2,18.6-.4,6.9-2.5,13.7-3.9,20.6-1.3,6.2-4.5,11-10,14.2-6.8,4.1-11.3,10.1-14,17.6-2.2,5.9-4.8,11.7-6.9,17.7-4.6,13.6,1.1,19.6,8.2,26.7,10.8,9.5,16.8,3.2,25,1.6,6.9-1,17.2.2,22.9,5.8,5.9,5.9,7.3,12.4,5.4,20.3-1.9,7.9,1.3,17.6,7.5,18.2,13,1.1,18.6,8.8,14.4,21.1-2.6,7.4-6.9,14.2-10.6,21.3-2.1,4.1-5.6,5-10,5.1-4.2.1-8.3,1.8-12.5,2.3-9.2,1.1-18.5,2.8-27.6,2.4-10.7-.4-21.1-.7-31.7,1.8-11.5,2.8-23.1,1.6-34.6-1.6-18.3-5-36.3-6.2-54.8,1.1-11.4,4.5-23.8,5.1-36.4,2.4-9-1.9-18.5-1.8-27.7-1.5-12.4.5-24.6.6-36.6-3.2-15-4.8-30.2-4.6-45.3-.2-15.1,4.4-30.2,5-45.3.2-14.7-4.6-29.8-2.7-44.7-3-23.3-.4-46.6.7-70,.7-12.6,0-25.3-.8-37.9-2.1-14.9-1.6-29.3.2-43.6,3.7-11,2.7-21.7,2.2-32.4-1.4-15.1-5.1-30.3-6.2-46.2-2.1-20.9,5.4-42.2,4.3-63.5,2.2-15.5-1.5-31.2-1.6-46.8-1.8-19-.2-38,0-56.9,0-.8.3-1.7-.3-5.1-1.6h0Z"/></g></svg>