<?xml version="1.0" encoding="UTF-8"?><svg id="b" xmlns="http://www.w3.org/2000/svg" viewBox="0 0 1224.18 499.89"><defs><style>.d{fill:#eefafa;}</style></defs><g id="c"><path class="d" d="m93.8,491.5c.7-.17,1.51-.36,2.39-.57l12.88,4.29c26.08.46,44.62,8.7,69.58-1.12,8.06-3.2,25.13-.9,33.72-1.6s17.6.4,26.19,1.9c14.21,2.4,27.88-.9,41.99,1.8,3.39.7,7,1,10.5,1,13.04-.1,26.4-1.8,39.44-2.1.42,0,1.27,0,1.7.1,24.17,2.3,48.45,7.9,72.1.5,10.18-3.2,21.95-4.5,33.19-4.1,16.65.7,32.87,5.6,49.09,1.3,2.76-.7,5.51-1.4,8.27-1.7,18.24-1.8,36.58-10.21,54.71-12.41,16.86-2.1,32.97,8.61,49.41,10.61,22.05,2.8,44.21,4.4,66.26,6.5,15.06,1.4,30.11,3.4,45.27,3.9,26.08.9,45.17-5.9,71.35-5.7,6.04.1,20.46,2.2,26.4,2.7,9.54.9,18.66.6,28.2-1.9,8.69-2.3,18.02-2.5,27.04,1.2,4.77,2,19.83-1,24.92.1,25.55,5.6,39.55-.6,65.95-4.2,16.22-2.2,30.75,3.6,46.23,3.6,9.33,0,35.09-3.5,45.91-1.8,34.25,5.4,67.54-6.8,101.89-3.3,19.3,2,34.78-2.57,54.05-.99,10.9.89,16.97-12.09,17.9-13.88,2.79-5.24,1.73-10.75,2.06-16.2.2-2.39-.07-4.98.8-7.17,2.39-5.97.53-10.02-4.58-13.54-5.31-3.65-10.09-8.03-12.74-14.14-3.58-8.23-10.29-11.95-18.58-13.27-5.64-.86-11.42-1.59-17.12-1.86-10.02-.4-19.25-3.12-27.41-8.83-2.59-1.79-5.04-4.31-6.7-7.04-6.64-10.89-7.96-23.16,4.12-34.78,3.78-3.65,5.71-8.16,4.18-13.27-2.79-9.56-2.06-19.18-1-28.87.53-4.71.13-9.29-2.32-13.47-2.39-3.98-4.58-8.23-7.57-11.68-2.59-2.92-6.04-5.04-9.36-7.17-2.19-1.39-4.51-1-6.84.4-10.09,6.11-20.71,5.51-31.26,1.59-8.89-3.32-12.01-11.62-8.3-20.44,1.53-3.65,3.38-7.23,4.31-11.08,3.45-14.34,1.33-27.68-8.5-39.09-3.39-3.98-5.24-8.03-4.85-13.21.2-3.12.4-6.24.13-9.29-.6-7.23-3.65-10.42-10.55-12.68-4.18-1.39-8.1-3.39-12.01-5.38-4.12-2.12-7.9-4.98-12.15-6.77-9.82-4.05-19.58-5.44-28.54,2.52-3.45,3.05-7.77,5.18-11.08,8.36-1.88,1.85-3.74,2.57-5.65,2.62-.98-.12-1.95-.25-2.91-.39-.79-.21-1.58-.5-2.39-.83-.26-.11-.62.01-1.06.33-6.63-.95-12.97-1.59-19.65,1.14-12.58,5.14-25.63,1.15-38.54,7.89-8.07,4.21-15.82,10.74-24.19,15.49-5.46,3.1-9.88,7.28-14.6,11.04-.63-.05-1.31-.09-2.07-.1-6.17-.13-12.41-.6-18.52.27-5.09.7-10.07,2.04-15.02,3.47-3.22-3.94.13-8.85.67-13.29.72-5.88-1.11-9.23-2.41-13.91-3.36-12.1-5.25-21.76-18.58-23.73-5.26-.78-9.4-2.99-13.83-4.99-1.33-3.52-2.94-6.88-5.78-9.69-2.7-2.67-8.22-6.72-14.02-9.8,4.29-16.15-8.65-24.24-12.54-39.21-2.04-7.85,3.4-13.83,2.74-21.06-.97-10.7-14.66-21.31-23.96-23.36-12.57-2.77-37.01,9.17-43.88-6.09-10.45-5.07-40.77-4.76-45.51,8.99-4.87-.22-9.55.85-14.32,1.52-.45-.22-.9-.43-1.36-.62-9.82-4.05-19.58-5.44-28.54,2.52-3.45,3.05-7.77,5.18-11.08,8.36-3.58,3.52-7.1,2.99-10.95,1.39-5.71-2.39-9.49-7.96-9.16-14.07.2-3.72.73-7.5,1.79-11.08,2.72-9.16-.33-17.26-4.98-24.56-4.51-7.04-9.82-13.74-19.91-13.27-3.98.13-6.9-2.19-8.23-6.44-1.92-6.24-3.58-7.43-9.82-7.57-6.17-.13-12.41-.6-18.52.27-6.77.93-13.34,2.99-19.91,4.91-1.99.6-3.78,2.26-5.38,3.78-2.39,2.32-4.58,4.85-6.77,7.3-4.91,5.51-10.62,10.02-17.46,12.88-7.23,3.05-14.2,3.58-19.91-3.19-.4-.53-.93-.93-1.46-1.33-6.44-5.44-13.14-7.3-21.24-2.72-3.85,2.19-8.69,3.45-13.21,3.65-14.67.73-26.28,6.97-35.51,17.99-5.38,6.44-10.75,12.88-16,19.45-5.11,6.44-6.44,13.47-2.99,21.11,1.13,2.39,2.26,4.78,3.39,7.17-.73,1-1.06,1.86-1.73,2.39-1.19.93-2.65,1.53-3.78,2.59-1.73,1.59-3.72,3.19-4.71,5.18-3.19,6.57-1.39,12.01,4.98,18.19,8.56,8.3,16.86,16.79,25.35,25.16,2.46,2.46,2.85,4.91.73,7.63-2.26,2.99-4.31,6.24-7.04,8.76-5.31,4.98-9.16,10.75-10.89,17.85-.4,1.46-.73,3.12-1.66,4.25-5.77,6.97-11.88,13.74-19.85,18.39-3.58,2.12-7.23,2.92-11.42,2.39-5.91-.73-11.88-1-17.85-1.53-3.25-.27-6.57-.33-9.76-1.13-3.19-.8-5.97-.8-8.83,1.06-2.19,1.39-4.71,2.39-7.23,3.19-5.51,1.73-8.16,5.44-7.5,11.28.2,1.99-6.16,2.83-6.16,9.12.2,2.09.77,4.5.84,6.63-4.2,1.67-8.36,3.32-13.51,3.88-7.29.8-15.77,1.55-21.26,6.04-4.21,3.44-7.56,7.4-11.22,11.1-.11,0-.22,0-.34,0-6.31.13-9.71,3.29-13.63,4.75-4.45,1.66-7.1,4.98-8.63,9.42-1.99,5.77-2.32,11.68-1.46,17.66.53,3.65,5.59,10.32,4.5,13.79-1.08,2.83,1.32,7.96,2.21,10.98-.96.91-1.96,1.78-3,2.58-4.39,3.43-10.9,5.08-12.58,9.68-1.3,3.55.67,8.23.78,11.76.34,10.3-8.42,14.2-18.13,10.19-8.19-3.38-14.42-9.41-23.25-11.11-8.37-1.61-17.13-.36-25.61.07-5.36.27-8.13-.21-11.8,3.33-2.97,2.87-3.3,8.85-7.08,11.07-7.11,4.17-15.96.78-23.07,7.61-8.24,7.91-10.16,18.02-8.57,28.5.54,3.59,1.3,6.64,2.34,9.2-.54,3.97-.48,8.3-3.16,11.19-3.15,3.4-5.33,1.59-8.73,2.99-6.14,2.53-11.44,7.46-17.68,9.58-5.86,1.99-13.4,1.52-19.53,3.08-6.86,1.75-17.1,3.99-21.04,9.84-3.9,5.78-2.68,14.46-7.11,19.63-4.62,5.39-12.89,5.24-17.94,9.69-3.19,2.82-7.38,13.79-5.94,19.21,4.32,16.31,9.31,15.79,29.37,16.94,14.14.81,24.06.77,38.12-.16,7.96-.54,17.1-1.71,26.01-3.88Z"/></g></svg>