<?xml version="1.0" encoding="UTF-8"?><svg id="b" xmlns="http://www.w3.org/2000/svg" viewBox="0 0 1503.87 455.33"><defs><style>.f{fill:#dae7f3;}</style></defs><g id="d"><path class="f" d="m1312.81,405c-.43-1.06-.85-2.08-1.28-3.05.53-3.27,1.78-1.58,2.41-7.46.21-12.5-20.96-34.98-33.79-37.28-12.11-2.1-23.53-6.42-35.43-9.42-11.7-2.9-16.22-18.2-16.22-29.7,0-9.8,2.16-17.2,2.16-29.2,0-10.7-4.93-21.8-16.11-27-2.36-1.1-14.57-8-14.27-18,.21-6,.31-12.1,1.74-17.9,4.52-18.3,9.13-17.8,7.39-36-.62-5.7-11.08-28.6-24.94-28.6-5.95,0-5.95-6-18.37-9.1-6.17-1.63-15.53,1.97-22.73,1.97-2.18-1.8-4.83-4.21-10.53-5.98-1.28-1.14-3.17-2.29-6.56-3.29-6.51-1.92-14,1.35-20.82,4.48-.71-.11-1.4-.25-2.04-.48-5.23-1.9-3.08-5.8-12.52-8.6-9.13-2.7-20.22,4.85-28.63,7.85-7.59,2.7-9.34,8-17.14,11.7-9.02,4.36-16.77,10.65-24.53,16.99-7.62-.62-18.45,4.01-25.07,1.65-5.23-1.9-3.08-5.8-12.52-8.6-.74-.22-1.49-.36-2.25-.45.17-9.04,1.34-14.13,1.93-23.44.51-7.8-8.21-19.5-15.8-21.5-7.43-1.95-13.29-3.26-19.31-3.69.04-.64.08-1.24.11-1.78.51-7.8-8.21-19.5-15.8-21.5-14.47-3.8-22.99-5.2-38.28-2.3-2.46.48-4.85.7-7.18.71.11-4.6.4-9.17.1-13.74-.51-6.2-1.54-12.4-2.87-18.5-.92-4.1-2.98-8-4.21-12.1-2.98-9.5-7.29-17.1-18.17-21.1-5.03-1.9-10.47,2.6-20.94-1.5-5.13-2-4.82-6.7-10.26-7.9-6.77-1.5-13.14-1.3-18.78,2.1-1.14.7-2.27,1.42-3.38,2.16-.94-.25-1.92-.55-2.96-.96-5.13-2-4.82-6.7-10.26-7.9-6.77-1.5-13.14-1.3-18.78,2.1-5.23,3.2-10.16,6.8-14.27,11.2-7.29,7.8-15.39,13-26.68,12.7-1.35-.04-2.69.15-4.03.42-1.02-3.66-2.78-7.19-3.89-10.88-2.98-9.5-7.29-17.1-18.17-21.1-5.03-1.9-10.47,2.6-20.94-1.5-5.13-2-4.82-6.7-10.26-7.9-6.77-1.5-13.14-1.3-18.78,2.1-2.28,1.39-4.49,2.87-6.61,4.44-3.47-.42-6.91-1.05-10.21-1.98-11.9-3.3-22.89-1.6-33.15,5.3-5.34,3.6-10.67,7.8-16.63,9.7-12.52,4-19.29,13.3-25.86,23.1-4.62,6.8-7.39,23.1-3.39,30.5,6.57,12.1,38.02,22.24,41.3,38.34-3.93,11.39-8.92,27.58-22.78,22.78-14.88-5.2-42.58.91-42.58,22.61,0,15.6-10.04,18.41-3.37,35.91,3.36,8.87-6.89,10.41-18.2,11.67-1.65-2.12-3.35-4.26-5.69-5.84-3.11-2.1-7.48-5.56-10.96-6.84-4.89-1.8-11.17-.38-16.41-.62-4.76-.22-9.6-2.54-14.34-1.93-1.75.22-3.48.62-5.2,1.1-6.99-4.74-16.06-6.15-25.13-4.08-5.95,1.4-12.11,2.2-18.17,3-19.7,2.5-28.02,21.72-31.41,40.22-2.05,11.1,6.23,23.28,3.35,34.18-2.36,9.3-8.62,15.6-17.45,19.7-8.62,4-11.93,13.05-19.84,18.15-10.57,6.8-27.21-3.32-37.06-9.92-7.49-5.1-30.08,3.11-37.06,7.31-6.98,4.3-19.61,3.75-26.59,7.95-12.73,7.7-7.84,40.91-17.28,52.91-5.13,6.5-32.07,10.6-40.08,13.1-18.78,5.9-18.9,28.11-37.78,33.81,0,0-18.29.9-18.29,16.8,0,7.8,11.64,15.53,14,16.23,7.49,2.2,10.27,3.38,17.76,4.58,18.47,3.1,31.88,1.28,50.56,3.28,33.25,3.5,61.18-7.88,94.33-2.48,10.47,1.7,35.41-1.8,44.44-1.8,14.98,0,29.04,5.8,44.75,3.6,25.55-3.6,39.1-9.8,63.83-4.2,4.93,1.1,19.5-1.9,24.12.1,8.72,3.7,17.75,3.5,26.17,1.2,9.24-2.5,18.06-2.8,27.3-1.9,5.75.5,19.7,2.6,25.55,2.7,25.35.2,43.82-6.6,69.07-5.7,14.68.5,29.25,2.5,43.82,3.9,21.35,2.1,42.8,3.7,64.14,6.5,15.91,2,31.51,5.7,47.82,3.6,17.55-2.2,35.3-3.6,52.96-5.4,2.67-.3,5.34-1,8.01-1.7,15.7-4.3,31.4.6,47.52,1.3,10.88.4,22.27-.9,32.12-4.1,22.89-7.4,46.39-1.8,69.79.5.41.1,1.23.1,1.64.1,12.62-.3,25.55-2,38.18-2.1,3.39,0,6.88.3,10.16,1,13.65,2.7,26.89-.6,40.64,1.8,8.31,1.5,17.04,2.6,25.35,1.9,8.31-.7,24.84,1.6,32.64-1.6,24.84-10.1,43.1-1.1,69.48-1.1,1.15,0,2.27-.08,3.37-.2.92.22,1.86.47,2.81.84,6.36,2.44,13.06,2.76,20.1,2.17,7.8-.65,15.01-.49,22.96-.48,6.73,0,37.84-.13,43.25-4.41,6.49-5.14,6.6-14.18,4.35-21-1.4-4.23-10.08-7.59-9.59-9.6.74-3.03-1.65-5.12-2.66-7.61Z"/></g></svg>