<?xml version="1.0" encoding="UTF-8"?><svg id="b" xmlns="http://www.w3.org/2000/svg" viewBox="0 0 1126.8 884.52"><defs><style>.d{fill:#eefafa;}</style></defs><g id="c"><path class="d" d="m1110.78,818.84c.49-7.3-4.02-12.07-6.56-18.84-2.15-5.74-2.46-8.66-6.93-13.13-4.8-4.8-19.32-10.2-20.7-17.13-4.26-21.3,19.96-13.63,7.87-44.62-.45-3.6-1.7-7.22-4.12-10.84-.9-1.4-1.2-3.1-2-4.6-3.1-5.6-2.4-11.2,1-16.1,3.4-4.8,7.5-9.3,11.8-13.3,7.6-7.1,14.6-6.5,24.4-10.3,3.3-1.2,6.7-10.1,6.4-14.2-.7-11-.9-20.4-6-27.9-1.8-2.7,3.6-12.1,5-14.8,4.2-7.9,2.6-16.2,3.1-24.4.3-3.6-.1-7.5,1.2-10.8,3.6-9,.8-15.1-6.9-20.4-3.01-2.07-5.9-4.29-8.55-6.75-1.03-3.74-3.77-6.89-7.99-9.8-.1-.07-.2-.14-.3-.21-.87-1.45-1.67-2.96-2.36-4.55-3.65-8.37-9.44-13.63-16.66-16.79-5.43-12.22-15.47-29.77-27.88-31.76-8.5-1.3-17.2-2.4-25.8-2.8-13.17-.52-15.98,21.82-40.23,5-7.83-14.41-14.36-27.42,5.7-47.36,5.94-1.16,11.91-2.17,17.97-3.22,5.44-.94,11.26-2.4,15.36-6.71,6.6-6.95,5.95-24.11,6.99-33.53,1.5-13.54-5.31-22.82-15.35-28.51-14.41-8.17-6.9-15.46-10.32-30.31-3.21-13.97-23.52-20.64-34.08-24.84-22.97-9.14-42.29-11.86-60.27.76-3.48-1.4-6.96-2.83-10.43-4.01-.92-4.6-.32-9.75,1.9-15.02,2.3-5.5,5.1-10.9,6.5-16.7,5.2-21.6,2-41.7-12.8-58.9-5.1-6-7.9-12.1-7.3-19.9.3-4.7.6-9.4.2-14-.9-10.9-5.5-15.7-15.9-19.1-.34-.11-.67-.24-1.01-.36-1.47-8.86-6.12-13.11-15.53-16.18-6.3-2.1-12.2-5.1-18.1-8.1-6.2-3.2-11.9-7.5-18.3-10.2-14.8-6.1-29.5-8.2-43,3.8-4.44,3.93-9.83,6.84-14.42,10.6-5.35-1.77-10.66-2.85-15.89-2.75.38-4.89,1.16-9.81,2.56-14.51,1.81-6.1,1.92-11.89.87-17.41.48-5.27.67-10.4,1.14-14.3,1.8-14.67-6.37-24.71-18.41-30.88-17.28-8.85-8.28-16.75-12.37-32.83-3.85-15.13-28.21-22.36-40.87-26.9-36.32-13.04-65.04-14.04-92.46,19.24-6.09,7.39-10.88,9.67-19.53,15.04-5.09,3.16-10.36,6.27-13.73,11.45-3.18,4.9-3.87,11.27-7.37,15.9-.63.68-1.27,1.36-1.89,2.05-.43.38-.89.75-1.39,1.09-2.14,1.43-4.61,2.2-7.23,2.61-.17-.19-.34-.38-.51-.58-.6-.8-1.4-1.4-2.2-2-9.7-8.2-19.8-11-32-4.1-5.8,3.3-13.1,5.2-19.9,5.5-15.81.79-29.25,5.84-40.72,14.72-3.6,1.04-7.35,1.66-10.97,1.82-22.1,1.1-39.6,10.5-53.5,27.1-8.1,9.7-16.2,19.4-24.1,29.3-7.7,9.7-9.7,20.3-4.5,31.8,1.7,3.6,3.4,7.2,5.1,10.8-1.1,1.5-1.6,2.8-2.6,3.6-1.8,1.4-4,2.3-5.7,3.9-2.6,2.4-5.6,4.8-7.1,7.8-4.8,9.9-4.39,31.04,5.21,40.34,12.9,12.5,27.69,12.36,40.49,24.96,3.7,3.7,4.3,7.4,1.1,11.5-3.4,4.5-6.5,9.4-10.6,13.2-8,7.5-13.2,16.36-16.4,26.9-2.43,8.01,2.18,12.1.78,13.8-3.78,4.56-9.32,7.4-15.09,5.88-3.5-.25-7-.51-10.5-.82-3.93-.32-7.92-.46-11.83-1.12-1.05-.35-2.05-.72-2.96-1.12-9.26-4.08-21.04-7.5-30.37-.84-3.65,2.6-5.62,7.54-9.28,10.35-4.67,3.58-10.79,4.41-16.08,5.71-5.14,1.26-14.99,4.12-20.84,8.54-7.77,2.7-11.51,8.21-10.54,16.74.3,3,1.9,5.8,2.2,8.7.5,5.2,2.5,11.7.2,15.4-4.21,6.79-5.92,15.15-10.5,21.73-.93-1.07-1.9-1.99-2.91-2.77-1.21-3.26-2.11-6.55-3.6-9.11-7.64-13.02-25.44-8.1-37.96-8.05-6.58.03-13.45.33-18.43,5.21-4.61,4.52-3.71,9.69-7.29,15.18-2.17,3.31-4.87-3.22-7.8.22-7.7,2.18-11.84,7.4-13.2,14.12-.7.7-1.39,1.38-2.07,2.04-8.02,7.86-24.99,10.21-35.25,14.03-6.7,2.5-10.7,17.51-13,24.21-3,8.7-3.5,17.6-2.2,26.6.8,5.5-.1,10-5.4,12.7-3.6,1.9-3.8,5-3.8,8.5-.1,9.4,5.2,16.2,10.4,23.2,3.3,4.4,7.7,6.4,13.1,5.4,13.1-2.3,26.8,2.1,33.3,13.8.6,1.2,1.4,2.4,2.4,3.2,12.57,10.8,9.98,36.4,1.12,50.69-1.1.08-2.24.1-3.43.07-4.4-.2-9.5,1.3-13.1,3.8-3.21,2.17-6.21,4.66-9.18,7.18-.3-.11-.6-.21-.91-.34-3-1.2-1.76-2.22-4.66-3.52-3.97-1.26-15.81.37-18.56,4.68-3.8,6.6-6.52,5.31-9.28,5.73-4.35.67-5.5.3-9.1,2.8-7.4,5-13.7,11.7-21.1,16.6-10.2,6.8-12,15.9-7.9,26.1,3.9,9.7,3.5,18.7-.2,28.1-2.6,6.6-2.7,12.9,3.3,18.2,2.2,2,3.6,4.8,5.5,7.1,11.5,13.7,7.8,35.2-4.4,45-9,7.3-16.46,7.38-24.36,15.88-4.4,4.7,3.57,12.2-2.54,25.12-2.9,3.6-5,6.1-6.8,9.1-1.8,2.8-3.2,5.8-4.7,8.8-4.5,9.2-1.8,16.1,8.1,19.5,9.9,3.4,20.2,3.5,30.6,2.3,5.9-.7,11.9-1.5,17.9-1.5,6.16.07,12.19-.43,18.17-1.4.5.21,1.02.41,1.56.6,9.9,3.4,20.2,3.5,30.6,2.3,2.6-.31,5.21-.63,7.84-.9,1.16.78,2.31,1.63,3.43,2.6,2.7,2.3,6.4,3.6,9.8,4.9,18.7,7.1,37.9,5.6,57.1,3.2,4.89-.61,9.78-1.3,14.67-1.96,17.28,5.57,34.95,4.25,52.63,2.07,5.27,1.73,10.36,2.97,16.09,2.49,3.3-.2,6.7.3,10,.5,17.9,1.2,35.8,2.4,53.7,3.6,2,.1,4-.2,6-.4,6.22-.73,12.43-1.73,18.65-2.52,14.53.97,29.05,1.95,43.58,2.92,2,.1,4-.2,6-.4,1.77-.21,3.54-.44,5.31-.68,9.29.49,18.57.98,27.86,1.28,18,.6,36,1.5,53.9,1,4.48-.11,8.95-.5,13.41-1.04.31.01.61.03.92.04,18,.6,36,1.5,53.9,1,11.9-.3,23.7-2.5,35.5-4.5,12.04-2.05,23.57-6.06,35.39-9.29,2.79.74,5.59,1.53,8.38,2.39,5.1,1.5,10.5,3.6,15.5,3.2,16.14-1.3,32.33-2.74,48.48-4.46,1.42.41,2.84.82,4.26,1.26,5.1,1.5,10.5,3.6,15.5,3.2,24.8-2,49.7-4.3,74.4-7.5.89-.11,1.78-.21,2.66-.32,10.57.78,21.14,2.08,31.7,1.92,9.03-.08,18.06-1.36,27.08-2.46,1.12.05,2.23.1,3.35.16,12.6.6,25.2,2.5,37.8,2.3,10.19-.09,20.39-1.71,30.58-2.87,12.89,1.48,25.49,2.36,38.38,1.67,3.2-.16,6.39-.65,7.13-3.39,7.49.28,14.96.83,22.4,1.69,11.88,1.37,23.5,2.22,35.34,1.83,7.22.48,14.94-.01,22.06-.24,13.55-.44,26.26-5.49,39.67-6.95,5.55-.61,17.73.68,22.33-2.33,11.24-7.35.83-17.66-4.11-24.46-3.94-5.43-7.37-8.61-6.84-16.39Z"/></g></svg>