<?xml version="1.0" encoding="UTF-8"?><svg id="b" xmlns="http://www.w3.org/2000/svg" viewBox="0 0 1419.1 832.21"><defs><style>.g{fill:#dae7f3;}</style></defs><g id="e"><path class="g" d="m193.88,774.67c-6.1-6.1-2.2-11.6,2.2-16.3,7.9-8.5,15.7-17.4,24.7-24.7,12.2-9.8,15.9-31.3,4.4-45-1.9-2.3-3.3-5.1-5.5-7.1-6-5.3-5.9-11.6-3.3-18.2,3.7-9.4,4.1-18.4.2-28.1-4.1-10.2-2.3-19.3,7.9-26.1,7.4-4.9,13.7-11.6,21.1-16.6,3.6-2.5,8.7-4,13.1-3.8,7.4.2,13-1.5,16.8-8.1.4-.8,1.6-1.1,2.8-1.8,2.9,1.3,5.9,2.8,8.9,4,7.9,3.2,14.4,1.5,21.1-4.1,12.9-10.9,19.3-44.5,4.4-57.3-1-.8-1.8-2-2.4-3.2-6.5-11.7-16.2-16.1-29.3-13.8-5.4,1-9.8-1-13.1-5.4-5.2-7-10.5-13.8-10.4-23.2,0-3.5.2-6.6,3.8-8.5,5.3-2.7,6.2-7.2,5.4-12.7-1.3-9-.8-17.9,2.2-26.6,2.3-6.7,6.3-11.7,13-14.2,5.9-2.2,11.7-4.9,17.8-6.4,5.3-1.3,9-4,11.8-8.4,1.1-1.7,2.5-3.2,3.5-4.9,4.9-8.3,12.2-11.4,21.7-11.6,7.9-.1,14,1.6,19.1,8.3,5.7,7.5,7.6,7.1,15.8,2.2,7.4-4.4,15.3-7.9,23-11.7,1.8-.9,3.9-1.1,5.6-2.2,9.9-6.6,11-18.7,16.7-27.9,2.3-3.7.3-10.2-.2-15.4-.3-2.9-1.9-5.7-2.2-8.7-1-8.8,3-14.4,11.3-17,3.8-1.2,7.6-2.7,10.9-4.8,4.3-2.8,8.5-2.8,13.3-1.6,4.8,1.2,9.8,1.3,14.7,1.7,9,.8,18,1.2,26.9,2.3,6.3.8,11.8-.4,17.2-3.6,12-7,21.2-17.2,29.9-27.7,1.4-1.7,1.9-4.2,2.5-6.4,2.6-10.7,8.4-19.4,16.4-26.9,4.1-3.8,7.2-8.7,10.6-13.2,3.2-4.1,2.6-7.8-1.1-11.5-12.8-12.6-25.3-25.4-38.2-37.9-9.6-9.3-12.3-17.5-7.5-27.4,1.5-3,4.5-5.4,7.1-7.8,1.7-1.6,3.9-2.5,5.7-3.9,1-.8,1.5-2.1,2.6-3.6-1.7-3.6-3.4-7.2-5.1-10.8-5.2-11.5-3.2-22.1,4.5-31.8,7.9-9.9,16-19.6,24.1-29.3,13.9-16.6,31.4-26,53.5-27.1,6.8-.3,14.1-2.2,19.9-5.5,12.2-6.9,22.3-4.1,32,4.1.8.6,1.6,1.2,2.2,2,8.6,10.2,19.1,9.4,30,4.8,10.3-4.3,18.9-11.1,26.3-19.4,3.3-3.7,6.6-7.5,10.2-11,2.4-2.3,5.1-4.8,8.1-5.7,9.9-2.9,19.8-6,30-7.4,9.2-1.3,18.6-.6,27.9-.4,9.4.2,11.9,2,14.8,11.4,2,6.4,6.4,9.9,12.4,9.7,15.2-.7,23.2,9.4,30,20,7,11,11.6,23.2,7.5,37-1.6,5.4-2.4,11.1-2.7,16.7-.5,9.2,5.2,17.6,13.8,21.2,5.8,2.4,11.1,3.2,16.5-2.1,5-4.8,11.5-8,16.7-12.6,13.5-12,28.2-9.9,43-3.8,6.4,2.7,12.1,7,18.3,10.2,5.9,3,11.8,6,18.1,8.1,10.4,3.4,15,8.2,15.9,19.1.4,4.6.1,9.3-.2,14-.6,7.8,2.2,13.9,7.3,19.9,14.8,17.2,18,37.3,12.8,58.9-1.4,5.8-4.2,11.2-6.5,16.7-5.6,13.3-.9,25.8,12.5,30.8,15.9,5.9,31.9,6.8,47.1-2.4,3.5-2.1,7-2.7,10.3-.6,5,3.2,10.2,6.4,14.1,10.8,4.5,5.2,7.8,11.6,11.4,17.6,3.7,6.3,4.3,13.2,3.5,20.3-1.6,14.6-2.7,29.1,1.5,43.5,2.3,7.7-.6,14.5-6.3,20-18.2,17.5-16.2,36-6.2,52.4,2.5,4.1,6.2,7.9,10.1,10.6,12.3,8.6,26.2,12.7,41.3,13.3,8.6.4,17.3,1.5,25.8,2.8,12.5,2,22.6,7.6,28,20,4,9.2,11.2,15.8,19.2,21.3,7.7,5.3,10.5,11.4,6.9,20.4-1.3,3.3-.9,7.2-1.2,10.8-.5,8.2,1.1,16.5-3.1,24.4-1.4,2.7-6.8,12.1-5,14.8,5.1,7.5,5.3,16.9,6,27.9.3,4.1-3.1,13-6.4,14.2-9.8,3.8-16.8,3.2-24.4,10.3-4.3,4-8.4,8.5-11.8,13.3-3.4,4.9-4.1,10.5-1,16.1.8,1.5,1.1,3.2,2,4.6,7.8,11.7,3.5,23.4-.9,34.4-2.3,5.8-8.1,10.4-12.8,15-8.5,8.4-11.7,21.9-6.6,32.9,3.1,6.6,6.9,12.9,10.5,19.3,5.3,9.4,3.3,18-5.9,24-.8.5-1.6,1.2-2.6,1.5-10.8,3.4-15.7,10.2-13.8,21.8.8,5-3.2,5.7-7.2,5.9-13,.7-25.7-.2-38.7-1.7-20.8-2.4-41.9-2.5-62.8-.5-11.9,1.1-23.8,3.3-35.7,3.4-12.6.2-25.2-1.7-37.8-2.3-21.6-1-43.2-2.1-64.8.7-24.7,3.2-49.6,5.5-74.4,7.5-5,.4-10.4-1.7-15.5-3.2-20.2-6.2-40.3-9.5-61.8-5.8-17.2,3-33.2,9.8-50.2,12.7-11.8,2-23.6,4.2-35.5,4.5-17.9.5-35.9-.4-53.9-1-15.3-.5-30.6-1.5-45.9-2.2-.7,0-1.4.1-2,0-18-4.8-35.7-.5-53.5,1.6-2,.2-4,.5-6,.4-17.9-1.2-35.8-2.4-53.7-3.6-3.3-.2-6.7-.7-10-.5-7.2.6-13.4-1.5-20.2-3.9-7.6-2.8-16.3-3.5-24.5-3.1-12.9.6-25.8,2.8-38.7,4.4-19.2,2.4-38.4,3.9-57.1-3.2-3.4-1.3-7.1-2.6-9.8-4.9-10.5-9.1-22.6-9.2-34.9-6.3-8.8,2.1-17.6,3.2-26.7,3.1-6,0-12,.8-17.9,1.5-10.4,1.2-20.7,1.1-30.6-2.3-9.9-3.4-12.6-10.3-8.1-19.5,1.5-3,2.9-6,4.7-8.8,1.8-3,3.9-5.5,6.8-9.1h0Z"/></g></svg>