<?xml version="1.0" encoding="UTF-8"?><svg id="b" xmlns="http://www.w3.org/2000/svg" viewBox="0 0 1879.11 1083.89"><defs><style>.d{fill:#eefafa;}</style></defs><g id="c"><path class="d" d="m732.91,21.34c10-15.9,25.7-21.9,43.6-21.3,12.9.5,25.8,3.3,38.4,5.9,4.7,1,8.9,4.3,13.2,6.8,10.1,5.7,20.2,11.5,30.3,17.4,12.8,7.5,22.5,17.5,26.1,32.5.1.3.1.7.2,1,4.5,18.9,20.4,27.6,37.7,18.8,16.2-8.3,33.8-12,50.6-18,2.3-.8,5.8-1.2,7.6-.1,6.3,4.2,13.1,8.4,17.8,14.1,6.1,7.4,10.5,16.2,15.2,24.6,1.4,2.4,1.4,5.7,1.6,8.6.5,7.3.7,14.6,1.2,21.9.4,5.4,3.7,9.1,7.8,12.3,7.6,5.9,12.9,13,15.1,22.7,2.1,9.5,13.7,18.6,23.6,18.9,6.2.2,12.6-.8,18.7-2,12.7-2.4,25.4-4.9,38-8.1,12.2-3.1,24.5-6.4,36.3-10.9,16.3-6.2,32.8-8.4,50-7,5.2.4,8.1,2.9,11,7.2,6.1,9.2,8.6,19.1,9.1,30.1.8,17.9,2.1,19.1,19.4,23.5,4.8,1.2,9.7,2.9,14.6,3.1,8.9.4,12,3.1,13.8,15,1.3,8.9,1,8.9,9.6,11.3,1.9.5,3.8,1.3,5.3,2.5,12.6,9.5,18.6,23.2,23.3,37.5.9,2.7-.6,6.6-1.9,9.5-4,8.8-8.2,17.5-12.7,26-2.8,5.3-2.9,10.6-2.6,16.4.8,14.2,1.4,28.5,1.2,42.8-.1,4.4-2.5,8.9-4.3,13.1-2.4,4-5.1,8.6-8.3,15.1,16.4,3.7,30.5,10.5,46.3,4.5,6.4-2.4,7.5-1.4,12.4,4.2.7,0,1.4.3,2,.1,9.9-3.4,14.4-.8,15,9.7.5,8,.1,16-.4,24-.7,10.7,2.4,18.5,13.3,22.8,8.3,3.2,15.9,8.1,24.3,12.4-1.4,8.1,2.4,13.5,9.9,17.1,2.1,1,4.1,3.6,5,5.8,2.7,6.5,7.7,7.7,13.8,7.3,3.3-.2,6.6-.4,9.9-.2,9.6.7,15.3,6.1,17.2,15.4,2.2,11.2,3,21.8-4,32.5-5.7,8.7-8.8,19.2-12.3,29.2-.9,2.6,1,6.3,1.7,10-.9,1.8-3,4.2-2.9,6.5.1,11.2.2,22.5,1.5,33.7.6,4.8,1.3,9-1.8,13.2-7.8,10.3-15.1,21.1-23.3,31.1-6.7,8-10.2,16.6-7.1,26.7,3.4,11.2,3.8,22.2,1.6,33.5-1.7,9.1,2.8,15.5,10.1,20.1,6.2,3.9,12.7,7.3,19.2,10.7,12.7,6.6,22.7,15.5,29.8,28.5,5,9.1,12.9,16.8,20.1,24.5,13.1,14.1,26.5,28,40.2,41.6,10.1,10,21.8,18.4,36.7,18.2,20.1-.3,31.7,10.8,39,27.3,6.8,15.3,16.6,28,28.4,39.4,1.6,1.6,3.6,3.6,5.6,3.9,9.8,1.3,19.3,4.7,29.6,2.5,11-2.3,21.7-6.1,33.3-5.7,7.4.2,14,1.7,19.1,7.1,5,5.3,9.4,11.2,13.8,17,3.7,5,6.8,10.1,12.8,13.5,6.9,3.9,13.3,4.6,20.9,3.9,8.6-.8,17.3-.1,25.9,0,6.8.1,11.8,3.4,16.1,8.6,3.1,3.7,7.1,7,11.3,9.5,3.7,2.3,7.8,2.5,12.4.5,9.7-4.3,18.9-3.2,26.5,4.7,7.8,8.1,15.4,16.5,22.8,24.4-4.5,11-15.3,16.3-27.5,15.4-12.9-1-25.9-1.6-38.9-1.5-4.4,0-9.2,1.6-13.2,3.8-6.1,3.2-12.2,4.5-19.1,4.8-18.3.9-36.5,2.7-54.8,4-19.6,1.4-39.2,2.6-58.8,3.9-1,.1-2.2.6-3,.2-9.9-4.9-20.3-.2-30.3-1.6-29.6-4-59.1.2-88.7-.6-3.9-.1-8.2-.1-11.7-1.6-12.3-5.1-24.6-5.1-37.2-1.7-7.1,1.9-14.2,4.1-21.4.2-.8-.4-2-.2-2.9-.2-11,.4-21.9.5-32.9,1.2-12.4.8-24.4,1.3-36.4-3.4-7.5-2.9-16.1-2.7-23.6.3-11.8,4.7-24.2,3.8-36.3,5.7-20.8,3.1-40.3-3.1-59.7-9.1-6.7-2.1-12.9-2.7-19.4-.3-27.5,10.1-56,11.1-84.8,8.5-7.5-.7-14.8-3.3-22.3-5.1-3.2-.8-6.5-2.1-9.7-2-11.6.2-23.2,1.1-34.8,1.2-9.6.1-19.3-.5-28.9-1-3.3-.2-6.5-1.3-9.2,1.8-1,1.1-3,2-4.4,1.9-11.6-1.1-22.2,3.5-33.4,5.1-6.2.9-12.6,1-18.9,1.1-15.7.3-31.3.8-47,.6-7.6-.1-15.4-.7-22.6-2.9-14.3-4.4-28.6-5.4-43.4-4.6-8.9.5-17.9-.4-26.9-.7-9.6-.2-19.3-.8-28.9-.5-11.3.3-22.7.7-33.9,1.9-12.5,1.3-24.9,3.9-37.4,5.3-6.8.7-13.9.2-20.8-.1-8-.4-15.9-1.5-23.9-1.8-13.4-.6-26.4-3-39.1-7.5-6.5-2.3-13.6-3.4-20.5-3.8-21.3-1.1-42.6-.7-63.5,4.9-3.8,1-7.9.9-11.9,1.1-18.3.8-36.6,1.2-54.9,2.3-6.6.4-13.2,1.9-19.7,3.3-8.9,2-17.7,2-26.8.7-8.9-1.3-17.9-1.3-26.8-2.2-25.5-2.3-51-4.7-76.5-7.3-12-1.2-23.8-1.9-35.8.2-5.5,1-11.3.8-16.9.4-11.3-.8-22.5-2.4-33.8-2.9-5.6-.3-11.2,1.2-16.8,1.8-9.6,1.1-19.1,2.5-28.7,3.1-8.3.5-16.7,0-25,.2-11.8.2-23.1-1.2-34.2-5.6-6.7-2.6-14.2-3.4-21.4-4.2-37.9-4.3-75.9-1.3-113.8-2.3-7.3-.2-15.4.8-21.7-2-9.2-4.1-18.3-6.7-28-8.6-2-.4-4.1-4.1-4.7-6.6-.6-2.7-.1-6.1.9-8.8,1.4-3.8.2-6.1-2.1-8.9-16.8-19.9-11.4-36.8,3-52.5,4.4-4.8,10.2-8.7,15.9-12,12.2-7,18.3-18.4,22-31,2.2-7.6,5.2-14.4,10.2-20.3,7.7-9.1,12.5-19.5,15.8-30.9,1.2-4.4,3.8-8.4,5.6-12.6,1.2-2.7,3.1-5.7,2.8-8.3-1.3-11.3-3.5-22.7-11.6-31.2-3.4-3.6-9.3-4.7-14-7.2-6.4-3.4-13.3-6.2-19.1-10.5-10-7.5-11.6-14.4-5.5-25.2,5.2-9.2,12-17.5,18.2-26.2,1.2-1.6,2.7-3,4.2-4.2,3-2.4,3.6-5.3,2.4-8.9-13-38.1-.7-70.1,24.4-98.5,15.7-17.8,34-32.8,54.1-45.6,14.8-9.4,30.8-12.2,47.9-9.5,9.7,1.5,15.9,7.1,17.2,16.8,2.6,19.7,13,25,32.7,22,12.2-1.9,23.9-6.3,30.5-18.3,1.8-3.3,4.7-4.2,8.3-4.3,13-.4,25.9-.9,38.9-1.6,4.3-.2,8.6-1,12.8-2,6.9-1.6,13.5-3.1,20.6-.7,5.4,1.8,10.6.3,14.9-3.5,4.5-3.9,9.1-7.8,13.6-11.8,6.9-6.3,11.3-13.8,12.2-23.3.5-5.6,1.5-11.2,2.6-16.8,4.2-21-5.2-27.8-21.6-32.8-3.2-1-6.6-1-9.8-1.8-8.5-2-13.9-8-14.7-16.8-.4-4.3-1-9,.3-12.9,3.8-10.8,2-21.7,2.3-32.6.1-2,.1-4,.5-6,1.5-7.7,6.4-12.2,14.2-13.3,2-.2,4-.3,6-.1,8.9.9,16-2,22.4-8.5,7.7-7.8,11-7.4,19.4-.5,6.4,5.3,9.2,5.5,16.1,1.3,1.4-.9,3-1.7,4.1-2.9,8.7-9.7,20.1-10.8,32-9.8,7,.6,13.9,1.6,20.9,2,7.6.4,15.4,1.1,22.9.5,12.6-1.2,21.8-7.7,25.9-20.2,3.8-11.4,7.9-22.8,3.1-35-3.3-8.5-8.1-15.6-17.8-17.1-6.8-1.1-9.7-4.9-9-13,.2-2.6.8-5.3,1.3-7.9,1-5.4-.7-9.5-4.5-13.5-4.5-4.8-8-10.5-11.8-15.9-3.1-4.4-5.5-9.2-8.9-13.2-7.6-9.2-17.2-14.7-29.7-12.9-7.2,1-13.7.1-20-3.8-5.4-3.2-11.6-5-17.1-8-7.6-4.2-9.8-11.5-8.7-19.7,1.4-10.4,5.4-19.9,11.8-28.3,1.4-1.8,3-3.9,5-4.7,10.5-4.2,16.4-13.3,23-21.7.2-.3.4-.5.6-.8,7.6-14.9,20.9-22.6,35.9-28.3,14-5.4,16.2-11.2,14.1-26.4-1.6-11.4-1.7-23.2-1.4-34.8.1-5.1,2-10.7,4.8-15,7.1-11.2,14.9-22.1,22.9-32.7,5.5-7.4,13.2-12.2,22.2-14.6,13.2-3.6,26.3-7.3,39.6-10.5,15.3-3.7,27.1,4.3,38.4,12.9,2.3,1.7,3.1,5.8,3.8,8.9,2.6,10.3,4.6,20.8,7.3,31.1,4.1,15.6,19.3,13,32.8,15,7.7,1.2,14.9,6,22.2,2.5,3.8-3.1,4.1-9.1,6.3-13.2,5.5-10.3,14-9.1,17.6-11.7,3.6-2.6,4.5-11.5,5.1-15.2,1-5.8,9.1-21.7,12.1-26.4Z"/></g></svg>