<svg xmlns="http://www.w3.org/2000/svg" style="display: none;">
    <symbol id="close" viewBox="0 0 14.7 14.7">
        <title>close</title>
        <desc>close</desc>
        <path class="st0" d="M8.4,7.3l5.2-5.2c0.3-0.3,0.3-0.8,0-1.1s-0.8-0.3-1.1,0L7.3,6.3L2.1,1.1c-0.3-0.3-0.8-0.3-1.1,0s-0.3,0.8,0,1.1
	    l5.2,5.2l-5.2,5.2c-0.3,0.3-0.3,0.8,0,1.1c0.1,0.1,0.3,0.2,0.5,0.2s0.4-0.1,0.5-0.2l5.2-5.2l5.2,5.2c0.1,0.1,0.3,0.2,0.5,0.2
	    s0.4-0.1,0.5-0.2c0.3-0.3,0.3-0.8,0-1.1L8.4,7.3z"/>
    </symbol>

    <symbol id="fullscreen" viewBox="0 0 14.7 14.7">
        <title>fullscreen</title>
        <desc>fullscreen button</desc>
        <path d="M5,14H1.5c-0.4,0-0.8-0.3-0.8-0.8V9.7C0.8,9.3,1.1,9,1.5,9s0.8,0.3,0.8,0.8v2.8H5c0.4,0,0.8,0.3,0.8,0.8S5.4,14,5,14z"/>
        <path d="M1.5,5.9c-0.4,0-0.8-0.3-0.8-0.8V1.6c0-0.4,0.3-0.8,0.8-0.8H5c0.4,0,0.8,0.3,0.8,0.8S5.4,2.4,5,2.4H2.2v2.8
            C2.2,5.5,1.9,5.9,1.5,5.9z"/>
        <path d="M13.2,6c-0.4,0-0.8-0.3-0.8-0.8V2.4H9.7C9.3,2.4,9,2,9,1.6s0.3-0.8,0.8-0.8h3.5c0.4,0,0.8,0.3,0.8,0.8v3.6
            C14,5.6,13.6,6,13.2,6z"/>
        <path d="M13.2,14H9.7C9.3,14,9,13.6,9,13.2s0.3-0.8,0.8-0.8h2.8V9.7c0-0.4,0.3-0.8,0.8-0.8S14,9.3,14,9.7v3.5
            C14,13.6,13.6,14,13.2,14z"/>
    </symbol>
</svg>