<?xml version="1.0" encoding="UTF-8"?><svg id="b" xmlns="http://www.w3.org/2000/svg" viewBox="0 0 2538.09 933.96"><defs><style>.d{fill:#eefafa;}</style></defs><g id="c"><path class="d" d="m2538.09,434.17V98.29c-9.02.25-18.04-1.46-27.01-2.45-1.19-.13-2.39-.24-3.58-.33-.98-.08-1.93-.35-2.81-.79-.29-.14-.57-.3-.86-.45-6.29-3.43-10.14-9.69-16.91-12.3-3.4-1.31-5.91-1.87-8.95-3.88-2.36-1.57-4.9-3.57-7.61-4.31-.78-.21-1.58-.35-2.38-.45-.76-.09-1.5-.32-2.19-.65-7.73-3.68-15.56-6.41-23.36-7.54-15.81-2.3-17.33.52-31.07-1.01-.65-.07-1.29-.24-1.89-.48-3.87-1.53-17.27-5.88-18.98-6.24-4.16-.87-18.08-.95-23.27-.64-.54.03-1.08,0-1.62-.09-10.58-1.75-12.18-2.42-23.33-7.8-22.33-10.78-45.87-9.72-69.27-9.3-.68.01-1.36-.07-2.03-.25-8.96-2.38-18.57-3.88-25.52,2-.14.02-.28.03-.42.04-.14.02-.28.04-.42.05-9.41-2.76-20.82-.55-30.63.78-6.36.87-13.52.77-19.27,3.78-7.17,3.75-11.41,9.37-19.34,11.25-8.57,2.03-16.92,5.37-25.15,8.57-16.17,6.28-13.02,8.52-30.12,8.93-.96.02-1.92-.14-2.81-.49-3.13-1.2-6.21-2.48-9.34-3.53-14.71-4.96-31.67,1.72-47.1-1.13-7.07-1.31-15.03-3.92-22.23-3.91-6.69,0-13.3,3-20.08,3.51-5.68.42-11.83-.75-17.27,1.89-7.8,3.8-9.88,8.15-18.82,7.18-8.25-.9-16.61.74-24.88,1.92-2.18.31-4.41-.33-6.01-1.85,0,0-.02-.02-.03-.02-9.99-9.53-14.08-11.38-28.32-16.43-13.54-4.81-30.03,12.21-42.73,6.3-13.57-6.32-16.32-13.72-25.89-22.43-9.73-8.86-55.42-8.64-66.87-5.1-7.59,2.34-10.86,7.67-17.04,12.09-5.79,4.14-9.32,1.21-16.41,2.24-8.04,1.18-21.98,1.26-28-2.97-3.23-2.27-6.22-3.51-8.96-5.92-3.31-2.9-3.26-7.86-7.12-9.93-15.99-8.58-34.63-3.81-53-4.67-17.71-.82-28.57-.05-42.48,11.63-4.86,4.07-11.52,6.37-14.82,11.62-3.68,5.84-.68,11.61-3.61,15.12-6.63,7.94-24.42-.6-34.38,3.44-8.95,3.63-16.55-3.73-22.9,3.68-17.42,20.34-31.98,10.13-57.22,13.89-9.17,1.37-16.39,5.4-23.47,9.81-1.11.69-2.39,1.08-3.7,1.12-8.68.24-17.36.63-26.22-.97-10.22-1.9-20.94-3.3-31.16-2.41-10.22.89-58.08-2.03-67.67,2.03-25.39,10.66-45.19,4.56-69.79,2.2-5.96-1.63-11.9-2.93-17.86-4.01-1.2-.22-3.69-.63-4.64-1.39-2.7-2.18-7.56-1.47-10.97-1.51-5.57-.07-10.25-2.28-15.98-1.48-5.11.71-36.56,1.46-41.75,2.2-.28.04-.56.06-.84.07-9.11.25-18.22.36-27.27-.64-1.2-.13-2.39-.24-3.58-.33-.98-.08-1.93-.35-2.81-.79-.29-.14-.57-.3-.86-.45-6.28-3.43-10.14-9.69-16.91-12.3-3.4-1.31-5.91-1.87-8.95-3.88-2.36-1.57-4.89-3.57-7.61-4.31-.78-.21-1.58-.35-2.38-.45-.76-.09-1.49-.32-2.18-.65-7.73-3.68-15.56-6.41-23.36-7.54-15.81-2.3-17.33.52-31.07-1.01-.65-.07-1.29-.24-1.89-.48-3.87-1.53-17.27-5.88-18.98-6.24-4.16-.87-18.08-.95-23.27-.64-.54.03-1.08,0-1.62-.09-10.58-1.75-12.18-2.42-23.33-7.8-22.33-10.78-45.87-9.72-69.27-9.3-.68.01-1.36-.07-2.03-.25-8.96-2.38-18.57-3.88-25.52,2-.14.02-.28.03-.42.04-.14.02-.28.04-.42.05-9.41-2.76-20.82-.55-30.63.78-6.36.87-13.52.77-19.27,3.78-7.17,3.75-11.41,9.37-19.34,11.25-8.57,2.03-16.92,5.37-25.16,8.57-16.16,6.28-33.04,8.52-50.14,8.93-.96.02-1.92-.14-2.81-.49-3.13-1.2-6.21-2.48-9.34-3.53-14.71-4.96-31.66,1.72-47.1-1.13-7.07-1.31-15.03-3.92-22.23-3.91-6.69,0-13.3,3-20.08,3.51-5.68.42-11.83-.75-17.27,1.89-7.8,3.8-9.88,8.15-18.82,7.18-8.25-.9-16.61.74-24.87,1.92-2.18.31-4.41-.33-6.01-1.85,0,0-.02-.02-.03-.02-9.99-9.53-14.08-11.38-28.32-16.43-13.54-4.81-29.81-1.54-42.51-7.45-13.57-6.32-16.55-21.12-26.11-29.83-9.73-8.86-35.4-8.64-46.85-5.1-7.59,2.34-10.86,7.67-17.04,12.09-5.79,4.14-7.48,4.72-14.58,5.75-8.04,1.17-34.44,4.05-40.46-.18-3.23-2.27-2.11-7.95-4.85-10.36-3.31-2.9-7.37-3.42-11.23-5.49-15.99-8.58-24.01-20.19-42.37-21.04-17.72-.82-28.57-.05-42.48,11.63-4.85,4.07-20.79,8.28-24.09,13.52-3.68,5.84-18.76,22.68-28.72,26.72-8.95,3.63-16.55,17.42-22.9,24.82-17.42,20.34-31.98,10.13-57.22,13.89-9.17,1.37-16.39,5.4-23.47,9.81-1.11.69-2.39,1.08-3.7,1.12-8.68.24-17.36.63-26.22-.97-10.22-1.9-20.94-3.3-31.16-2.41-4.23.37-14.91.08-26.65-.09v356.19h0v479.48h2538.09v-499.78h0Z"/></g></svg>