<?xml version="1.0" encoding="utf-8"?>
<!-- Generator: Adobe Illustrator 27.2.0, SVG Export Plug-In . SVG Version: 6.00 Build 0)  -->
<svg version="1.1" id="b" xmlns="http://www.w3.org/2000/svg" xmlns:xlink="http://www.w3.org/1999/xlink" x="0px" y="0px"
	 viewBox="0 0 2538.1 905.2" style="enable-background:new 0 0 2538.1 905.2;" xml:space="preserve">
<style type="text/css">
	.st0{fill:#DAE7F3;}
</style>
<g id="c">
	<g>
		<path class="st0" d="M2538.1,102.6c-2,0.1-12.1,0-15.3-2.1c-2.5-1.6-8.5-5.2-11.4-6c-0.8-0.2-1.6-0.4-2.5-0.5
			c-0.8-0.1-10.1-2.5-10.8-2.9c-8.1-3.8-28.6-21.7-43.1-23.3c-0.7-0.1-1.4-0.2-2-0.5c-4.1-1.6-18.1-6.1-19.9-6.5
			c-4.4-0.9-19-1-24.4-0.7c-0.6,0-1.1,0-1.7-0.1c-11.1-1.8-12.8-2.5-24.5-8.1c-23.4-11.2-48.2-10.1-72.7-9.7c-0.7,0-1.4-0.1-2.1-0.3
			c-9.4-2.5-19.5-4-26.8,2.1c-0.1,0-0.3,0-0.4,0s-0.3,0-0.4,0c-9.9-2.9-21.9-0.6-32.1,0.8c-6.7,0.9-14.2,0.8-20.2,4
			c-7.5,3.9-12,9.8-20.3,11.7c-9,2.1-17.8,5.6-26.4,8.9c-17,6.6-34.7,8.9-52.6,9.3c-1,0-2-0.2-2.9-0.5c-3.3-1.3-6.5-2.6-9.8-3.7
			c-15.4-5.2-33.2,1.8-49.4-1.2c-7.4-1.4-15.8-4.1-23.3-4.1c-7,0-14,3.1-21.1,3.7c-6,0.4-12.4-0.8-18.1,2c-8.2,4-10.4,8.5-19.8,7.5
			c-8.7-0.9-17.4,0.8-26.1,2c-2.3,0.3-4.6-0.3-6.3-1.9c0,0,0,0,0,0c-10.5-9.9-14.8-11.9-29.7-17.2c-14.2-5-31.3-1.6-44.6-7.8
			c-14.2-6.6-12.3,1.8-22.3-7.2c-10.2-9.2-39-8.3-51-4.6c-8,2.5-14.6-0.8-21.3-2.5c-7.2-1.8-16.4,3-23.8,4
			c-8.4,1.2-27.5-3.3-33.8-7.7c-3.4-2.4-12.8-14.4-16.9-16.5c-16.8-8.9-25.7,3.8-45,3c-18.6-0.9-23.9,2-38.5,14.2
			c-5.1,4.2-21.8,7.8-24.9,11.5c-7,8.3-25.6-0.6-36.1,3.6c-9.4,3.8-17.4,18.2-24,25.9c-18.3,21.2-33.6,10.6-60.1,14.5
			c-9.6,1.4-17.2,5.6-24.6,10.2c-1.2,0.7-2.5,1.1-3.9,1.2c-9.1,0.2-18.2,0.7-27.5-1c-10.7-2-22-3.4-32.7-2.5
			c-10.7,0.9-61-2.1-71.1,2.1c-5.9,2.5-11.5,4.1-17,5c-1-1.3-2.1-2-3-2.3c-7.9-2.4-15.8-4.2-23.7-5.6c-1.3-0.2-3.9-0.7-4.9-1.4
			c-2.8-2.3-7.9-1.5-11.5-1.6c-5.8-0.1-10.8-2.4-16.8-1.5c-5.4,0.7-38.4,1.5-43.8,2.3c-0.3,0-0.6,0.1-0.9,0.1
			c-9.6,0.3-19.1,0.4-28.6-0.7c-1.2-0.1-2.5-0.2-3.8-0.3c-1-0.1-2-0.4-2.9-0.8c-0.3-0.2-0.6-0.3-0.9-0.5
			c-6.6-3.6-10.7-10.1-17.8-12.8c-3.6-1.4-6.2-1.9-9.4-4.1c-2.5-1.6-5.1-3.7-8-4.5c-0.8-0.2-1.7-0.4-2.5-0.5
			c-0.8-0.1-1.6-0.3-2.3-0.7c-8.1-3.8-16.3-6.7-24.5-7.9c-16.6-2.4-18.2,0.5-32.6-1.1c-0.7-0.1-1.3-0.2-2-0.5
			c-4.1-1.6-18.1-6.1-19.9-6.5c-4.4-0.9-19-1-24.4-0.7c-0.6,0-1.1,0-1.7-0.1c-11.1-1.8-12.8-2.5-24.5-8.1
			c-23.5-11.2-48.2-10.1-72.7-9.7c-0.7,0-1.4-0.1-2.1-0.3c-9.4-2.5-19.5-4-26.8,2.1c-0.2,0-0.3,0-0.4,0s-0.3,0-0.4,0
			c-9.9-2.9-21.9-0.6-32.2,0.8c-6.7,0.9-14.2,0.8-20.2,4c-7.5,3.9-12,9.8-20.3,11.7c-9,2.1-17.8,5.6-26.4,8.9
			c-17,6.6-34.7,8.9-52.6,9.3c-1,0-2-0.2-3-0.5c-3.3-1.3-6.5-2.6-9.8-3.7c-15.5-5.2-33.2,1.8-49.4-1.2c-7.4-1.4-15.8-4.1-23.3-4.1
			c-7,0-14,3.1-21.1,3.7c-6,0.4-12.4-0.8-18.1,2c-8.2,4-10.4,8.5-19.8,7.5c-8.7-0.9-17.4,0.8-26.1,2c-2.3,0.3-4.6-0.3-6.3-1.9
			c0,0,0,0,0,0c-10.5-9.9-14.8-11.9-29.7-17.2c-14.2-5-31.3-1.6-44.6-7.8c-14.2-6.6-17.4-22-27.4-31.1c-10.2-9.2-37.2-9-49.2-5.3
			c-8,2.5-11.4,8-17.9,12.6c-6.1,4.3-7.9,4.9-15.3,6c-8.4,1.2-36.2,4.2-42.5-0.2c-3.4-2.4-2.2-8.3-5.1-10.8c-3.5-3-7.7-3.6-11.8-5.7
			c-16.8-8.9-25.2-21.1-44.5-22c-18.6-0.9-30,0-44.6,12.1c-5.1,4.3-9.4,9-12.8,14.5c-3.9,6.1-3.4,20.3-6.5,23.9
			c-7,8.3-25.6-0.6-36.1,3.6c-9.4,3.8-17.4,18.2-24,25.9c-18.3,21.2-33.6,10.6-60.1,14.5c-9.6,1.4-17.2,5.6-24.6,10.2
			c-1.2,0.7-2.5,1.1-3.9,1.2c-9.1,0.2-18.2,0.7-27.5-1c-10.6-2-21.8-3.4-32.4-2.5v201.7c10.1-0.7,20.1-2.2,30-4.8
			c21.9-5.6,42.8-4.1,63.6,2.9c14.7,5,29.5,5.6,44.6,1.9c19.7-4.8,39.5-7.3,60-5.1c17.3,1.8,34.8,2.9,52.2,2.9
			c32.2,0,64.3-1.5,96.3-1c20.5,0.4,41.3-2.2,61.5,4.1c20.8,6.6,41.6,5.8,62.4-0.3c20.8-6.1,41.7-6.3,62.3,0.3
			c16.5,5.2,33.3,5.1,50.4,4.4c12.7-0.4,25.7-0.5,38.1,2.1c17.3,3.7,33.2-2.4,50.1-3.3c7.9-0.4,38.9,2.3,49,3.9
			c24.8,4.3,50.2-0.7,75.3,2.1c44.6,4.8,87.8-12,132.3-4.5c14,2.3,47.5-2.5,59.6-2.5c20.1,0,39,8,60,5c34.3-5,52.4-13.5,85.6-5.8
			c6.6,1.5,26.2-2.6,32.3,0.1c11.7,5.1,23.8,4.8,35.1,1.6c3.8-1.1,7.7-1.9,11.4-2.4c12.7,0,25.7,0.7,38.2,1.3
			c7.8,1,16.5,2.1,21.3,2.2c11.3,0.1,34.3-3.6,34.6-5c9.1-1.1,18.1-1.8,27.2-0.9c29.3,2.9,58.6,4.4,87.4-3
			c21.9-5.6,42.8-4.1,63.6,2.9c14.7,5,29.4,5.6,44.6,1.9c19.7-4.8,39.5-7.3,60-5.1c17.3,1.8,34.8,2.9,52.2,2.9
			c32.2,0,64.3-1.5,96.3-1c20.5,0.4,41.3-2.2,61.5,4.1c20.8,6.6,41.6,5.8,62.3-0.3c20.8-6.1,41.7-6.3,62.3,0.3
			c16.5,5.2,33.3,5.1,50.4,4.4c12.7-0.4,25.7-0.5,38.1,2.1c17.3,3.7,33.2-2.4,50.1-3.3c7.9-0.4,38.9,2.3,49,3.9
			c24.8,4.3,50.2-0.7,75.3,2.1c44.6,4.8,87.8-12,132.3-4.5c14,2.3,47.5-2.5,59.6-2.5c20.1,0,38.9,8,60,5c34.3-5,44.5-11.9,78.5-8.9
			c3,0.3,15.6,0.3,21.3-0.2L2538.1,102.6L2538.1,102.6z"/>
	</g>
</g>
</svg>
