<?xml version="1.0" encoding="UTF-8"?><svg id="b" xmlns="http://www.w3.org/2000/svg" viewBox="0 0 2538.09 523.6"><defs><style>.d{fill:#7194c6;}</style></defs><g id="c"><path class="d" d="m2523.22,26.98c-31.95-1.3-58.45-9.84-91-7.05-3.29.28-6.39-1.44-9.5-2.06-12.07-2.44-23.35-15.11-36.82-3.49-.75.64-2.48.52-3.64.26-14.24-3.18-27.67-3.58-42.82-.82-16.58,3.02-34.06,4.89-51.26,6.14-4,.29-7.53,2.1-12.05.42-10.12-3.76-20.79-5.19-31.65-3.19-19,3.49-37.81,4.02-56.47-2.37-4.59-1.57-9.87-1.04-14.71-2.06-14.34-3-28.78.1-43.05-.83-23.88-1.56-47.41-.04-70.9,3.79-7.72,1.26-15.72,5.09-23.01,3.98-17.85-2.72-35.18-10.57-53.53-2.49-.96.42-2.42-.31-3.65-.44-20.72-2.08-41.98,4.55-62.33-3.78-.67-.27-1.66.05-2.44.29-17.32,5.18-34.74,9.21-52.75,12.03-16.62,2.6-33.51,2.5-49.02.65-20.91-2.5-41.99-2.86-62.83-5.73-7.29-1-14.45-3.07-22.18-1.33-10.33,2.33-20.82,1.94-30.99-1.82-6.36-2.35-12.63-1.96-19.46-.82-16.24,2.73-32.51,7.13-49.06,6.01-30.88-2.09-61.78-3.41-92.71-4.4-20.12-.64-40.17-3.77-60.28-4.22-15.85-.36-31.74-.8-47.71.64-20.65,1.86-41.59,4.69-61.96-3.7-6.75-2.78-14.5-3.38-21.9-.19-5.44,2.34-11.33,2.17-17.16,2.33-21.91.61-43.82-2.18-65.73.19-5.4.58-10.72-.2-15.69-2.91-3.33-1.81-7.28-2.99-10.83-1.52-17.56,7.28-35.14,6.8-53.17,1.73-18.92-5.32-38.79-1.35-58.01-5.24-16.59-3.36-33.41-5.96-50.49-2.27-5.6,1.21-11.62,4.56-17.03,2.05-14.72-6.84-30.3-1.96-45.2-2.78-12.04-.66-24.62-3.08-36.74-1.43-18.43,2.51-36.84,4.81-55.42,5.33-6.89.19-15.39-3.77-20.46-.97-34.25,18.89-73.12,3.41-108.05,15.51-1.45.5-3.31.02-4.94-.26-24.37-4.15-48.62-4.47-72.76,1.8-4.4,1.14-8.92.52-13.38-1.39-3.72-1.59-7.96-2.89-11.95-2.82-18.41.31-36.81,1.3-55.22,1.76-20.05.5-41.13-3.53-59.77,3.9-17.77,7.09-36.35,6.95-54.2,9.96-18.46,3.11-38.64-1.73-57.73-5.04-33.21-5.76-65.92-14.66-99.99-14.5-6.99.03-14.04.75-20.91,1.33-18.41,1.55-36.89-3.76-54.91-.04-13.94,2.88-27.64,1.95-41.47,2.02-8.31.04-16.14,1.32-24.31,3.54-12.6,3.43-24.72,11.94-38.4,8.25-21.31-5.74-42.46-8.34-64.73-6.87-38.24,2.51-76.64,1.08-114.89,4.85v496.67h2538.09V26.93c-3.77.35-11.07.2-14.88.05Z"/></g></svg>