<?xml version="1.0" encoding="UTF-8"?><svg id="b" xmlns="http://www.w3.org/2000/svg" viewBox="0 0 2538.09 458.53"><defs><style>.d{fill:#7fa162;}.e{fill:#49597c;}</style></defs><g id="c"><g><path class="e" d="m2538.09,10.96c-52.47,0-104.94-1.83-157.41-1.88-53.05-.04-106.11-.5-159.16-.22-10.17.05-20.69-2.8-30.63,1.81-1.6-.07-3.21-.15-4.81-.22-4.99-2.98-10.53-2.02-15.82-1.88-20.31.56-40.61,2.04-60.91,2.06-119.94.12-239.88.44-359.81-.32-102.46-.65-204.93,2.21-307.39-1.46-17.59-.63-35.44-4.15-53.12.02-19.21-2.93-38.41-1.83-57.79-1.64-38.4.39-76.9,1.64-115.27-.08-25.66-1.15-51.18,1.77-76.76.12-10.98-.71-22.59-8.42-32.39-3.54-16.68,8.31-34.4,5.51-50.81,5.84-36.23.72-72.61-.7-108.94-.94-5.22-.03-13.63,1.16-15.05-1.33-4.37-7.66-8.84-3.79-13.28-2-4.2,1.69-8.06,4.83-11.4-1.02-5.69,4.13-15.05-13.77-18.76,3.12-.4,1.82-2.82.98-4.4.62-7.42-1.69-14.91.08-22.31-.4-11.77-.78-23.4-.83-35.2-.56-56.46,1.3-113.13,3.88-169.53-2.63-5.04-.58-9.96-.36-14.54,1.8-8.57,4.04-17.59,3.88-26.69,3.29-3.82-1.71-7.4-1.51-10.65,1.34-1.38.07-2.77.14-4.16.21-4.23-3.69-9.43-2.49-14.24-2.5-46.27-.11-92.54-.15-138.8.02-5.63.02-11.6-1.61-16.93,1.79-17.14-.22-34.28-.43-51.42-.65-14.68-2.29-29.37-2.04-44.07-.21-7.75.04-15.5.08-23.25.13-18.62-1.3-37.26-3.46-55.74,1.27-1.68-.13-3.36-.25-5.04-.38,0,0,0,0,0,0-16.63-3.55-33.31-2.88-50.01-.69-.01-.02-.02-.03-.03-.05,0,0-.44.1-.44.1-12.75-.01-25.5-.11-38.25-.03-48.81.31-97.61.55-146.42,1.06-5.48.06-10.97.06-16.45.02v74.74h2538.09V10.96Z"/><path class="d" d="m2508.54,45.24c-7.64.17-15.41,1.35-22.99.21-5.68-.86-11.14-1.05-16.81-.28-4.06.55-9.35,2-12.14.58-8.04-4.09-16.13-.93-23.64-.61-15.38.66-30.69-.66-46.09.4-12.73.88-25.73-.75-38.61-1.18-11.4-.38-22.89.01-34.2.3-9.99.26-20.14-1.31-30.13.7-12.86,2.59-25.53-2.61-38.63-.63-13.35,2.02-27.06,1.09-40.62,1.05-1.05.08-2.1.16-3.15.24-3.23-.31-6.42-.19-9.6.34-5.03-1.3-10.24-1.49-15.44-1.5-25.54-.02-51.19,1.04-76.62-.03-5.38-.23-10.77.66-16.16.61-16.84-.15-33.69-.62-50.53-.63-14.95,0-29.9.93-44.84.9-11.88-.03-23.75-1.04-35.62-.99-5.15.02-10.47-1.14-15.5.74-.77-.04-1.76-.1-2.53-.15-2.49-1.15-5.25-.77-7.89-.71-10.27.23-20.53.83-30.79.84-9.93,0-19.87-.98-29.8-.97-5.96,0-11.91,1.01-17.87,1.02-17.16.02-34.32.6-51.48.3-9.07-.16-18.14-1.29-27.22-1.3-8.23-.01-16.47,1.17-24.7,1.37-10.28.24-20.57-.49-30.85-.54-11.41-.06-22.81-.87-34.22-.75-8.23.09-16.45,1.15-24.68,1.06-8.64-.09-17.28-1.15-25.92-1.14-16.63.02-33.25-.53-49.88-.52-6.9,0-13.8.94-20.71.74-8.89-.26-17.92-1.69-26.86,0-9.71-1.19-19.42-.75-29.22-.67-19.41.16-38.88.67-58.28-.03-12.97-.47-25.88.72-38.81.05-5.55-.29-11.42-3.43-16.37-1.44-8.43,3.39-17.39,2.24-25.69,2.38-18.31.29-36.71-.29-55.08-.38-2.64-.01-31-.1-31.8-.25-3.75-.69-7.54.03-11.28-.16-5.93-.31-15.65-.27-21.59-.16-27.29.54-54.67,1.39-81.92-1.15-2.55-.24-5.03-.15-7.35.73-4.33,1.65-8.89,1.58-13.5,1.34-1.98-.71-3.83-.61-5.5.63-.73,0-1.26,0-1.99,0-2.14-1.51-4.77-1.02-7.2-1.03-23.39-.05-46.78-.06-70.18,0-2.85,0-5.86-.66-8.56.74-8.67-.09-17.33-.18-26-.27-6.77-.85-13.54-.85-20.31-.27-4.23.1-8.45.19-12.68.29-9.76-.52-19.53-1.55-29.22.46-.85-.05-1.7-.1-2.55-.16,0,0,0,0,0,0-8.41-1.46-16.84-1.18-25.28-.28,0,0-.01-.01-.02-.02,0,0-.22.04-.22.04-6.45,0-12.89-.05-19.34-.01-24.68.13-49.35.23-74.02.43-20.85.18-41.7-.95-62.56-.07-10.93-1.35-21.86-1.63-32.78.12-.48-.05-1.2-.11-1.68-.16-2.02-.86-4.23-.79-6.44-.79-28.09-.02-56.19-.14-84.28-.02-6.31.03-12.71-.37-18.95.93-.85,0-2.18-.02-3.03-.02-8.52-1.93-17-.76-25.49.43-1.35-.21-3.32-.52-4.66-.73-2.76-1.22-5.55-.8-8.35.58-1.98-.04-3.95-.08-5.93-.11-.4-.01-.81-.03-1.21-.04-22.31.03-44.63-.29-66.93.22-14.01.32-27.95-.62-42.01-.16-23.35.75-46.8-.23-70.2-.64-15.67-.27-31.36-.08-46.99.2-10.72.19-21.5.12-32.15-.03-16.52-.23-33.07.82-49.56-.29-11.2-.75-22.61.91-33.63-1.86-.12-2.48-1.76-1.97-3.55-1.17-.97.07-1.95.15-2.93.23-2.91-3.22-6.69-1.43-10.21-1.17-6.38.85-12.87-.82-19.21.58-.81-.19-1.44-.02-1.86.59-1.73-.27-3.45-.54-5.18-.81-6.13-.33-12.25-.66-18.38-.99-27.18-1.45-54.35-.74-81.52.23-1.54.05-2.94.3-3.35,1.77-2.19.09-4.38.18-6.57.27-3.27-3.96-7.59-1.07-11.45-1.14-16.26-.29-32.55-1.14-48.78-.67-9.38.27-18.73.04-28.08-.1v417.8h2538.09V40.73c-15.18.17-19.71,4.29-29.55,4.51Z"/></g></g></svg>