<?xml version="1.0" encoding="utf-8"?>
<!-- Generator: Adobe Illustrator 27.2.0, SVG Export Plug-In . SVG Version: 6.00 Build 0)  -->
<svg version="1.1" id="b" xmlns="http://www.w3.org/2000/svg" xmlns:xlink="http://www.w3.org/1999/xlink" x="0px" y="0px"
	 viewBox="0 0 2538.1 302.6" style="enable-background:new 0 0 2538.1 302.6;" xml:space="preserve">
<style type="text/css">
	.st0{fill:#5B845F;}
</style>
<g id="c">
	<g>
		<g>
			<path class="st0" d="M2538.1,63.1c-24.9,0.9-50.1-2.7-74.9-1.3c-12.2,0.7-25.4-2-36.2,3.2c-2.5,1.2-8.9,0.9-13.5,0.8
				c-37.6-0.6-74.6,2.7-111.9,4c-21.3,0.8-42.4,3-64,2.5c-40.1-0.8-77.8-9.4-118.7-7.8c-4.1,0.2-8-0.8-11.9-1.2
				c-15.2-1.4-29.3-8.8-46.2-2c-0.9,0.4-3.1,0.3-4.6,0.2c-17.9-1.8-34.8-2.1-53.8-0.5c-20.8,1.8-42.8,2.8-64.4,3.6
				c-5,0.2-9.5,1.2-15.1,0.2c-12.7-2.2-26.1-3-39.8-1.8c-23.9,2-47.5,2.3-70.9-1.4c-5.8-0.9-12.4-0.6-18.5-1.2
				c-18-1.7-36.2,0.1-54.1-0.5c-30-0.9-59.6,0-89.1,2.2c-9.7,0.7-19.7,3-28.9,2.3c-22.4-1.6-44.2-6.1-67.2-1.5
				c-1.2,0.2-3-0.2-4.6-0.2c-26-1.2-52.7,2.6-78.3-2.2c-0.8-0.2-2.1,0-3.1,0.2c-21.8,3-43.6,5.3-66.3,7c-20.9,1.5-42.1,1.5-61.6,0.4
				c-26.3-1.5-52.8-1.7-78.9-3.3c-9.2-0.6-18.2-1.8-27.9-0.8c-13,1.3-26.2,1.1-38.9-1.1c-8-1.4-15.9-1.1-24.4-0.5
				c-20.4,1.6-40.8,4.1-61.6,3.5c-38.8-1.2-77.6-2-116.5-2.5c-25.3-0.4-50.5-2.2-75.7-2.5c-19.9-0.2-39.9-0.5-59.9,0.4
				c-25.9,1.1-52.2,2.7-77.8-2.2c-8.5-1.6-18.2-2-27.5-0.1c-6.8,1.4-14.2,1.3-21.6,1.3c-27.5,0.3-55-1.3-82.6,0.1
				c-6.8,0.3-13.5-0.1-19.7-1.7c-4.2-1-9.1-1.7-13.6-0.9c-22.1,4.2-44.1,3.9-66.8,1c-23.8-3.1-48.7-0.8-72.9-3
				c-20.8-2-42-3.5-63.4-1.3c-7,0.7-14.6,2.7-21.4,1.2c-18.5-4-38.1-1.1-56.8-1.6c-15.1-0.4-30.9-1.8-46.1-0.8
				c-23.1,1.5-46.3,2.8-69.6,3.1c-8.6,0.1-19.3-2.2-25.7-0.6c-43,11-91.8,2-135.7,9c-1.8,0.3-4.2,0-6.2-0.2
				C32.7,63.5,16.3,62.8,0,63.1v239.5H2538L2538.1,63.1L2538.1,63.1z M1536.7,98.8c1.9,0.1,3.5,0.2,4.6,0.7
				C1540.1,99,1538.5,98.8,1536.7,98.8z M1541.3,99.5c0.7,0.3,1.2,0.8,1.4,1.4C1542.5,100.3,1542,99.8,1541.3,99.5z"/>
			<path class="st0" d="M2538.1,11.4c-9.2,0.5-18.8-11.4-27.3-7.7c-10.2,4.4-18.1-1.6-27.1-0.6c-2,1.3-4.2,3-5-1.1
				c-13.7,7.7-28-2.1-42.2,1.6c-16.4,2.4-34.7-1.3-51.3-1.7c-11.8-2.1-39.8,11.8-43.1-3.5c-4.5,1.7-8.8,8.8-14.6,6
				c-22.4-4.2-44.6,3.2-67.1,0c-13.5-4.5-66.6-11.5-56.1,6.9c-2.3-3.3-3.6-7.5-7.5-9.3c-6.3,6.5-33.2,5.6-38.6-1.3
				c-3,7-10.1,1.6-14.4,4.7c-13,1.6-24-5.7-37.7-3.5c-1.4,3.1-5.2,4-10.2,3.9c-1.6-1-2.9-0.9-4.1-0.3c-12.3-1.5-29-6.8-37.2-3.4
				c-23.6,5.8-48.1,7.9-71.7,0.9c-22.6,5.7-34.2,12.5-54.4-3.6c-13.6,3.2-27.8,5.2-39.9,12.2c-0.2-0.5-0.5-0.9-0.7-1.5
				c-11.5-2.8-23.1-4.8-35-2.8c-0.4,1.8-3-0.9-4.8-0.4c-0.1,0.2-0.2,0.4-0.4,0.6c-1.4-1.3-2.2-2.9-2-5.5c-7.1,6.1-11-2.3-14.4,3
				c-2.9,1.6-8.8,3.3-12.7,2.1c21.9-0.1,8.6-8-5.3-1.5c-21.7-2.2-43.8,0.8-63.6-7.2c-4.5,10.9-14,4-20.8,4.8
				c-18.5-0.7-39.5,2.9-59.3,0.8c-17-3.4-50.6,8.3-60.1-3.8c-7.4,5.7-10.7-0.5-19.9,1.6c-4.1,5.5-6.7-1.3-10.1-1.3
				c-11.1,4.4-26.2,5.7-39.9,5.8c-35.6-4.7-59.5,2-93.1-1.5c-6.7-1.1-12.1,8.7-17.5,2.1c-0.9,0.1-1.8,0.2-2.8,0.3c0,0,0,0,0-0.1
				c-0.2,0-0.3,0.1-0.5,0.1c-13.9,1.5-27.6,0.2-41.2-1c-2.8-1.3-5.7-1.2-8.6-0.7c-13.4-1-26.8-1.2-40.7,2c-7.1,2.5-21.1-1-31.8-3.4
				c-8.1-1.8-16.9-0.6-25.3-0.8c-1.8,1.8-0.6,7.7-5.7,5c-3.8-2-14.8,5.4-10.6-7.5c-42.6,2.9-89.5-8.7-128.8,8.8
				c-21.2-4.8-53.4-12.9-79.1-1.5c-10.9-1.2-21.5-1.1-32.1-1.2c-1.4-1.2-3.2-2-5-2.8c-3-1.9-4,0.9-5.3,2.6c-0.2,0-0.3,0-0.5,0
				c-0.5-6-6.5-3.3-10.3-4.7c-2,1.5-4.5,2.5-7.4,3.1c-0.7-0.1-1.3-0.2-2-0.3c-3.3-0.5-6.5,0-9.7,0.9c-2.9-0.2-5.7-0.5-8.1-0.9
				c-2.9,3.5-6.5,4.3-10.1,4c-2-0.5-4-1.5-6-3.1c-9.8-8.1-19.8,0.2-29.5-1.4c-1.7-0.3-2.2,0.4-2.2,1.3c-15.2,0.8-30,2.7-44.4-0.7
				c-5,5.8-8.3-4.1-13-1.3c-12.3-1-24.2,1.1-36.3,3.6c-0.8,0.6-1.6,1.1-2.4,1.5c-2.4-1.4-4.2-0.5-5.9,0.8c-2.4-0.3-4.9-0.7-7.5-1.1
				c-2.1-1.3-4.1-3-6.1-5.1c-2,1.3-0.6,2.8,0.4,4.2c-4.4-0.7-9.1-1.5-14-2.2c-27.7-9.2-59.5-6-89.8-3.4c-1.4,0-2.7,0.2-4,0.3
				c-8.9,0.8-17.7,1.5-26.2,1.7c-4.3-3.6-10,6.3-13.4-1.6c-22-0.7-44.4,2.5-65.9,4.2c-1-4.5-20.2-1.7-28.4,2.1
				c-0.8,0.2-1.5,0.3-2.2,0.6c0.4-5.5-36.8-3.2-31-0.1c-2.2-0.1-5.2-3.6-6.5-3.8c-4.9,2.4-9.9,2.8-15,2.5c-1.5-1-3.1-1.8-4.9-1.8
				c-2.9-0.3-5.8-0.1-8.8,0.3c-4.8-0.4-9.5-0.3-14,1.6c-0.9,0.4-1.8,0.7-2.6,0.9c-2.8,0.2-5.4,0-7.6-0.8c0,0.5,0,1,0,1.4
				c-5.8-0.5-11.1-2.8-16.8-2.2c-2,1.3-4.2,3-5-1.1c-7.5,4.2-15.1,3.2-22.9,2c-1.5-0.4-3-0.7-4.5-1c0,0.1-0.1,0.2-0.1,0.3
				c-4.9-0.7-9.8-1-14.7,0.3c-4.5,0.7-9.2,0.9-14,0.8c-1.8-1.6-2.5-1.1-4.1-0.1c-11.1-0.5-22.5-2.1-33.3-2.4
				c-4.5-0.8-11.5,0.8-18.5,2.1c-2.5-2.3-5-5.8-7.4,1.2c-8.4,1.1-15.6,0.4-17.2-6.9c-4.5,1.7-8.8,8.8-14.6,6
				c-7.7-1.4-15.3-1.5-22.9-1.1c0.1-0.2,0.2-0.4,0.3-0.6c-0.3,0.2-0.7,0.5-1,0.6c-2.2,0.1-4.4,0.3-6.6,0.5c-1.1-0.5-2.2-1.2-3.1-2.2
				c-0.4,0.9-0.8,1.8-1.3,2.5c-10,0.8-20.1,1.7-30.2,0.6c-0.1-0.1-0.1-0.2-0.2-0.3c-1.2-0.2-2.4-0.4-3.6-0.4
				c-13.5-3.9-51.7-8.7-55.6,1.4c-0.9,0.1-1.8,0.1-2.6,0.1c-1-1.4-2.2-2.5-3.8-3.3c-6.3,6.5-33.2,5.6-38.6-1.3
				c-3,7-10.1,1.6-14.4,4.7c-13,1.6-24-5.7-37.7-3.5c-5,11-38.7-5.2-51.5,0.2c-10.2,2.5-20.5,4.3-30.9,5v20.3c1.3-0.3,2.7-0.8,4-1.5
				c7.4-3.8,14.9-6.2,22.6,0c11.3,4.1,12.7-10,19.4-1.7c4.6-4.6,15.7,1,17-8.8c10.3,17.2,35.2-0.8,44.1,12.7c3.5-2,0.6-10,11.5-5.5
				c5.1-0.1,6.8,3.4,13,1.1c0-2.5,1.2-6.1,3.2-5c4.4,2.3,12.6-4.9,13.8,5.2c5.4-0.2,10.8-0.4,16.1-0.5c1.2,2.4,4,3.6,6.5,4.8
				c3.4,2.1,4.2-1.6,5.8-3.2c0.1,6.8,6.4,3.8,10.3,5.3c6.2-4.9,18.9-4.2,27.2-2.8c5.7-7,14.1-3.1,19.5-2.1c25.4,4.9,49.5-3.4,72.7,2
				c5-5.8,8.4,4.1,13,1.3c12.3,1,24.2-1.1,36.3-3.6c0.8-0.6,1.6-1.1,2.4-1.5c3,1.7,5,0,7.1-1.7c4.5,0.3,8.5,3.2,12.3,7.2
				c3.8-2.3-4.4-5.4,0.6-7.4c39.4,20.1,90.1,8,132.9,6.7c4.3,3.6,10-6.3,13.4,1.6c22,0.7,44.4-2.5,65.9-4.2c1,4.5,20.2,1.7,28.4-2.1
				c0.8-0.2,1.5-0.3,2.2-0.6c-0.4,5.5,36.8,3.2,31,0.1c2.2,0.1,5.2,3.6,6.5,3.8c4.9-2.4,9.9-2.8,15-2.5c1.5,1,3.1,1.8,4.9,1.8
				c2.9,0.3,5.8,0.1,8.8-0.3c4.8,0.4,9.5,0.3,14-1.6c0.9-0.4,1.8-0.7,2.6-0.9c2.8-0.2,5.4,0,7.6,0.8c0-0.5,0-1,0-1.4
				c5.8,0.5,11.1,2.8,16.8,2.2c2-1.3,4.2-3,5,1.1c7.5-4.2,15.1-3.2,22.8-2c1.5,0.4,3,0.7,4.5,1c0-0.1,0.1-0.2,0.1-0.3
				c4.9,0.7,9.8,1,14.7-0.3c4.5-0.7,9.2-0.9,14-0.8c1.8,1.6,2.5,1.1,4.1,0.1c11.2,0.5,22.5,2.1,33.3,2.4c4.5,0.8,11.5-0.8,18.5-2.1
				c2.5,2.3,5,5.8,7.4-1.2c8.4-1.1,15.6-0.4,17.2,6.9c4.5-1.7,8.8-8.7,14.6-6c7.7,1.4,15.3,1.5,22.9,1.1c-0.1,0.2-0.2,0.4-0.3,0.6
				c0.3-0.2,0.7-0.5,1-0.6c2.2-0.1,4.4-0.3,6.6-0.5c1.1,0.5,2.2,1.2,3.1,2.2c0.4-0.9,0.8-1.8,1.3-2.5c10-0.8,20.1-1.7,30.2-0.6
				c0.1,0.1,0.2,0.2,0.2,0.3c1.2,0.2,2.4,0.4,3.6,0.4c13.5,3.9,51.7,8.7,55.6-1.4c0.9-0.1,1.8-0.1,2.7-0.1c1,1.4,2.2,2.5,3.8,3.3
				c6.3-6.5,33.2-5.6,38.6,1.3c3-7,10.1-1.6,14.4-4.7c13-1.6,24,5.7,37.7,3.5c1.4-3.1,5.2-4,10.2-3.9c1.6,1,2.9,0.9,4.1,0.3
				c12.3,1.5,29,6.8,37.2,3.4c23.6-5.8,48.1-7.9,71.7-0.9c22.6-5.7,34.2-12.5,54.4,3.6c13.6-3.2,27.8-5.2,39.9-12.2
				c0.2,0.5,0.5,0.9,0.7,1.5c11.5,2.8,23.1,4.8,35,2.8c0.4-1.8,3,0.9,4.8,0.4c0.1-0.2,0.2-0.4,0.4-0.6c1.4,1.3,2.2,2.9,2,5.5
				c7.1-6.1,11,2.3,14.4-3c2.9-1.6,8.8-3.2,12.7-2.1c-21.9,0.1-8.6,8,5.3,1.5c21.7,2.2,43.8-0.8,63.6,7.2c4.5-10.9,14-4,20.8-4.8
				c18.5,0.7,39.5-2.9,59.3-0.8c17,3.4,50.6-8.3,60.1,3.7c7.4-5.7,10.7,0.5,19.9-1.6c4.1-5.5,6.7,1.3,10.1,1.3
				c11.1-4.4,26.2-5.7,39.9-5.8c35.6,4.7,59.5-2,93.1,1.5c6.7,1.1,12.1-8.7,17.5-2.1c0.9-0.1,1.8-0.2,2.8-0.3c0,0,0,0,0,0.1
				c0.2,0,0.3-0.1,0.5-0.1c13.9-1.5,27.6-0.2,41.2,1c2.8,1.3,5.7,1.2,8.6,0.7c13.4,1,26.8,1.2,40.7-2c7.1-2.5,21.1,1,31.8,3.4
				c8.1,1.8,16.9,0.6,25.3,0.8c1.8-1.8,0.6-7.7,5.7-5c3.8,2,14.8-5.4,10.6,7.5c42.6-2.9,89.5,8.7,128.8-8.8
				c21.2,4.8,53.4,12.9,79.1,1.5c21.5,2.3,42-0.3,62.6,3.2c11.8,1.8,22.8-10.1,33.9-0.9c9.8,8.1,19.8-0.2,29.5,1.4
				c3.8,0.6,1.4-3.2,2.5-4.5c8.6,1.6,26.3-4.7,28.6,0.5c3.7-0.6,6.8-2.8,10-4.2c0.9,0.5,1.8,1.1,2.7,1.8c15.2,7,38.9,10,50.2,0.1
				c1,0.1,2,0.2,3,0.3c0,0.3,0.1,0.5,0.1,0.8c3,2.4,5.1,1.5,7.1,0.1c23.5,3.3,61.1,11.6,86.1,4.1c6-2.1,18.2-12.5,16.8,1.5
				c8.3,3.1,31.3,3.8,26.1-8.2c6.5,1.8,11.8,12.1,19.1,11.5c0.8-0.1,1.1,0.2,1.7,0L2538.1,11.4L2538.1,11.4z M287.2,28
				c-0.5-0.5,0-0.3,0.4-0.3C288,28.1,287.6,28.1,287.2,28z M900.9,9.1c-0.5-0.4-0.1-0.4,0.4-0.3C901.7,9.2,901.3,9.1,900.9,9.1z
				 M1237.5,6.9c0.4-0.1,0.8-0.3,1.3-0.4C1238.4,6.9,1237.9,6.8,1237.5,6.9z M1241.5,9.8l0.2-0.3C1241.9,9.8,1241.9,9.9,1241.5,9.8z
				 M1602.6,6.2c0.1-0.1,0.1-0.2,0.2-0.2c0,0,0,0,0,0C1602.8,6.1,1602.7,6.1,1602.6,6.2z M1609.5,26.4
				C1609.5,26.4,1609.5,26.4,1609.5,26.4c0.1-0.1,0.2-0.2,0.2-0.2C1609.7,26.2,1609.6,26.3,1609.5,26.4z M1970.6,22.9
				c-0.1-0.4-0.2-0.5,0.2-0.3L1970.6,22.9z M1973.6,25.9c0.3-0.4,0.8-0.3,1.3-0.4C1974.5,25.6,1974,25.7,1973.6,25.9z M2451,11.8
				c0-0.2-0.1-0.3,0-0.4C2451.6,10.7,2451.1,11.4,2451,11.8z M2451.4,10.9c0.5-2.1-0.3-5,2.9-5.5C2458.7,7,2454.7,11.4,2451.4,10.9z
				"/>
		</g>
	</g>
</g>
</svg>
