<svg xmlns="http://www.w3.org/2000/svg" version="1.1" xmlns:xlink="http://www.w3.org/1999/xlink" width="100" height="100"><svg width="100" height="100" viewBox="0 0 100 100" version="1.1" id="SvgjsSvg1009" sodipodi:docname="flora-icon-round.svg" inkscape:version="1.3.2 (091e20e, 2023-11-25)" inkscape:export-filename="flora-icon.png" inkscape:export-xdpi="768" inkscape:export-ydpi="768" xmlns:inkscape="http://www.inkscape.org/namespaces/inkscape" xmlns:sodipodi="http://sodipodi.sourceforge.net/DTD/sodipodi-0.dtd" xmlns="http://www.w3.org/2000/svg" xmlns:svg="http://www.w3.org/2000/svg">
  <sodipodi:namedview id="SvgjsSodipodi:namedview1008" pagecolor="#ffffff" bordercolor="#000000" borderopacity="0.25" inkscape:showpageshadow="2" inkscape:pageopacity="0.0" inkscape:pagecheckerboard="0" inkscape:deskcolor="#d1d1d1" inkscape:zoom="3.7539997" inkscape:cx="70.05861" inkscape:cy="68.726697" inkscape:window-width="1792" inkscape:window-height="989" inkscape:window-x="0" inkscape:window-y="25" inkscape:window-maximized="0" inkscape:current-layer="svg1"></sodipodi:namedview>
  <defs id="SvgjsDefs1007"></defs>
  <circle style="display:inline;fill:#0c1410;fill-opacity:1;stroke:#000000;stroke-width:0" id="SvgjsCircle1006" cx="50" cy="50" r="50"></circle>
  <path id="SvgjsPath1005" style="fill:#65d9be;fill-opacity:1;stroke:none;stroke-width:0;stroke-dasharray:none" class="st2" d="m 57.10382,16.663574 c -2.53364,-0.597251 -2.110511,-0.299252 -4.025444,0.329734 -1.386716,0.451041 -2.235408,0.560347 -3.507684,1.217174 -0.835995,0.431586 -0.639526,0.353252 -1.475668,0.868727 -1.060928,0.654089 -2.17104,2.810864 -2.600596,4.460088 L 44.95944,25.5933 c -0.420628,1.614949 -0.449252,2.756436 -0.351215,4.230816 0.127208,1.912717 1.291699,5.335034 -0.493904,5.259046 -0.655204,0.05273 -0.871652,-0.988463 -1.882662,-2.379696 -2.819752,-3.880097 -5.7109,-10.00654 -11.167826,-10.425404 -3.623522,-0.254603 -6.020226,1.501709 -7.79779,4.484629 -4.632373,7.940746 8.006264,12.5833 12.454585,16.87455 1.174177,1.141527 1.198835,2.36824 -0.380758,3.408734 -0.698327,0.316741 -2.026617,1.197206 -4.755272,2.588207 -3.193321,1.627874 -7.254938,2.744942 -9.982372,6.733509 l -0.544784,0.723155 c -1.363982,2.627766 -2.720217,5.617338 -2.182824,8.14045 0.341093,1.623868 0.06938,0.457253 1.400952,3.748756 1.331581,3.291496 3.569376,6.212502 6.894943,6.890719 3.325566,0.67823 7.144178,1.40568 11.91591,-2.297939 6.447929,-5.297359 7.152645,-12.15226 10.040461,-11.548885 1.46382,0.305851 1.297302,1.701973 1.59941,2.975443 0.163118,0.687584 0.04509,2.397347 0.291015,3.521616 1.09542,4.881232 -0.08894,12.772548 10.83749,14.322631 2.093376,0.278302 7.506706,-1.257528 9.547597,-2.980643 2.23557,-1.887483 2.70337,-4.295215 3.103453,-6.15812 0.635254,-3.444094 1.23568,-5.389911 -4.188034,-12.769393 -1.708505,-2.324581 -2.866282,-3.716949 -5.066317,-6.171477 -0.687379,-0.720576 -0.89881,-1.551856 -0.821992,-2.210811 0.119683,-0.219438 0.282324,-1.219365 1.311085,-1.327329 1.028757,-0.10796 3.074542,0.530059 6.18429,1.152082 2.088532,0.418664 5.31424,0.215978 6.050167,0.03174 0.20625,-0.0716 3.69331,-0.960122 4.488787,-1.862601 1.636742,-1.85687 1.79326,-2.705101 1.794071,-4.641133 0.0036,-8.278971 -9.219558,-12.864063 -17.164527,-9.733235 -0.766486,0.301585 -1.773581,1.29099 -2.524786,1.533903 -0.07385,0.04342 -1.281508,0.356328 -1.324794,0.282403 -0.04328,-0.07393 -0.804842,-0.273032 -0.871007,-0.979447 -0.06616,-0.706413 2.371349,-6.462371 2.710109,-8.003113 0.170662,-0.89534 0.64545,-1.272634 -0.179352,-5.309275 -0.824804,-4.036651 -2.743363,-6.039749 -6.79973,-7.033622 z m -5.312439,25.920921 c 1.034294,0.268819 2.029788,0.818456 2.901562,1.703372 5.288576,5.38724 0.655471,11.885936 -6.110319,11.690034 -0.927758,-0.04713 -2.236844,-0.545546 -2.664879,-0.824738 -1.692286,-1.103687 -2.521048,-3.031443 -3.030221,-4.918338 -0.8034,-4.726908 4.421915,-8.815206 8.903857,-7.65033 z" sodipodi:nodetypes="ccscsscccccccscccsscssccscsccsccccccsscscsccccs" inkscape:label="flower"></path>
</svg><style>@media (prefers-color-scheme: light) { :root { filter: none; } }
@media (prefers-color-scheme: dark) { :root { filter: none; } }
</style></svg>