<svg xmlns="http://www.w3.org/2000/svg" style="display: none;">
    <symbol id="leaf1" viewBox="0 0 170.41 50.22"><g id="c"><path class="d" d="M169.93,32.57c-.35-.73-.96-1.14-1.7-1.42-3-.85-5.14-3.13-6.9-5.6-.4-.6-.61-1.23-1.51-1.14-1.57-.51-3.08-1.45-4.64-2.09-18.75-11.14-41.9-6.74-61.73-15.11C69.51-6.31,42.58,1.83,18.42,10.15c-5.29,1.33-10.48,2.98-16.01,2.44-2.8,.12-2.85,3.48-1.69,5.34,5.96,7.24,16.56,7.79,24.08,12.9,15.41,8.37,30.87,19.26,49.15,18.63,13.03,1.56,26.17,.28,39.26,.1,7.77-.69,15.49,.85,23.16-.61,5.56-1.87,10.89-4.39,16.3-6.72,5.82-2.73,14.54-2.43,17.73-8.79-.17-.31-.33-.58-.47-.87Z"/></g></symbol>
    <symbol id="leaf2" viewBox="0 0 160.97 51.2"><g id="c"><path class="d" d="M160.05,25.8c-21.14-15.24-40.17-13.98-64.22-17.73C59.86-3.07,48.45-3.96,14.26,13.57c-2.84,1.19-5.63,2.3-8.87,2.45-2.07,.1-4.27,.76-4.75,1.8-2.66,5.91,3.35,7.49,9.53,11.16,6.75,8.2,9.84,13.36,20.82,17.48,.8,.78,29.85,6.94,39.71,3.89,9.11-2.06,18.23-5.44,27.93-4.89,6.99,.81,14.59-.19,21.43-.32,9.84-.28,21.27,.23,29.01-6.86,1.98-1.99,4.82-3.06,6.57-5.23,.84-1.37,2.01-2.24,3.46-2.81,1.66-.7,2.75-3.3,.97-4.44Z"/></g></symbol>
    <symbol id="leaf3" viewBox="0 0 154.87 37.51"><g id="c"><path class="d" d="M2.11,24.82c11.17,.36,22.44,4.27,32.38,9.51,5.34,3.27,11.68,1.47,17.56,1.72,16.15,.8,32.56,2.73,48.69,.2,16.94,.49,31.1-9.93,46.96-13.57,2.18-.67,5.1,.85,6.79-.68,.6-.94,.56-1.37-.55-1.68-12.19-11.68-30.32-14.35-46.85-14.62C94.49,4.56,82.27,.87,69.64,.2,45.79-2.05,27.07,15.45,4.74,19.94c-.11,.02-2.36,.41-2.41,.29-2.27,.65-3.75,2.88-.23,4.59Z"/></g></symbol>
    <symbol id="leaf4" viewBox="0 0 165.16 39.96"><g id="c"><path class="d" d="M1.03,16.59c4.01,1.34,8.51,1.03,12.37,2.81,11.41,6.51,22.3,16.53,35.66,18.94,13.69,2.95,27.47,1.19,41.21-.19,12.21-.27,24.31-1.6,36.19-4.6,13.31-2.52,23.44-15.23,37.45-14.86,4.44-2.42-4.05-6.82-6.76-7.7-6.46-2.1-13.57-2.15-20.18-3.86C107.65-5.26,94.79,2.45,66.87,1.54,51.18,.14,35-.48,20.83,7.62c-5.91,3.95-15.46,.5-20.14,5.45-.46,1.2-1.44,3,.34,3.52Z"/></g></symbol>
    <symbol id="leaf5" viewBox="0 0 167.86 41.75"><g id="c"><path class="d" d="M8.93,23.38c20.86,2.86,40.14,11.4,60.26,16.79,14.18,2.33,29.08,2.34,42.89-1.75,14.08-1.37,27.59-6.18,40.53-11.92,4.69-2.69,11.48-1.21,15.26-4.94-.16-2.84-11.92-5.47-12.99-5.79-17.39-7.06-35.78-8.9-54.25-10.7C83.59,3.52,66.55,.03,49.45,.21c0-.07-.01-.14-.02-.21C36.88,.53,24.75,4.74,13.87,10.8c-8.34,3.55-23.72,10.18-4.95,12.58Z"/></g></symbol>
    <symbol id="leaf6" viewBox="0 0 159.97 38.64"><g id="c"><path class="d" d="M157.37,8.04c-31.99-16.69-44.18-.22-76.92-5.81-13.49-2.38-28.38-3.54-41.72,.1-7.9,3.3-14.55,9.26-22.73,12.12-3.73,.53-7.47,1.53-11.11,2.27-3.44,.69-5.74,2.05-4.61,4.83,.43,1.24,1.49,1.49,2.74,1.62,4.84,.52,8.02,3.66,11.83,5.99,6.16,3.26,12.14,7.15,18.94,9.01,10.08,2.16,18.94-3.63,28.93-3.77,16.93,1.01,33.98,1.74,50.47-2.86,10.56-4.12,21.23-7.87,31.69-12.2,3.91-2.28,21.66-5.75,12.49-11.29Z"/></g></symbol>
</svg>