<svg xmlns="http://www.w3.org/2000/svg" style="display: none;">
    <symbol id="arrow" viewBox="0 -2 13.6 22">
        <polygon points="0,2 10.2,2 0,12.2 1.4,13.6 11.6,3.4 11.6,13.6 13.6,13.6 13.6,0 0,0 "/>
    </symbol>

    <symbol id="close" viewBox="0 0 14.7 14.7">
        <title>close</title>
        <desc>close</desc>
        <path class="st0" d="M8.4,7.3l5.2-5.2c0.3-0.3,0.3-0.8,0-1.1s-0.8-0.3-1.1,0L7.3,6.3L2.1,1.1c-0.3-0.3-0.8-0.3-1.1,0s-0.3,0.8,0,1.1
	    l5.2,5.2l-5.2,5.2c-0.3,0.3-0.3,0.8,0,1.1c0.1,0.1,0.3,0.2,0.5,0.2s0.4-0.1,0.5-0.2l5.2-5.2l5.2,5.2c0.1,0.1,0.3,0.2,0.5,0.2
	    s0.4-0.1,0.5-0.2c0.3-0.3,0.3-0.8,0-1.1L8.4,7.3z"/>
    </symbol>
    <symbol id="contact" viewBox="0 0 13.4 12">
        <title>contact</title>
        <desc>contact button</desc>
        <path class="st0" d="M12.4,1.7H1c-0.6,0-1,0.4-1,1V10c0,0.6,0.4,1,1,1h11.4c0.6,0,1-0.4,1-1V2.7C13.4,2.1,13,1.7,12.4,1.7z
        M12.1,2.9v0.8L6.7,6.3L1.2,3.6V2.9H12.1z M1.2,9.8V4.7l5,2.4c0.1,0.1,0.3,0.1,0.5,0.1c0.2,0,0.3,0,0.5-0.1l4.9-2.4v5H1.2z"/>
    </symbol>

    <symbol id="fullscreen" viewBox="0 0 14.7 14.7">
        <title>fullscreen</title>
        <desc>fullscreen button</desc>
        <path d="M5,14H1.5c-0.4,0-0.8-0.3-0.8-0.8V9.7C0.8,9.3,1.1,9,1.5,9s0.8,0.3,0.8,0.8v2.8H5c0.4,0,0.8,0.3,0.8,0.8S5.4,14,5,14z"/>
        <path d="M1.5,5.9c-0.4,0-0.8-0.3-0.8-0.8V1.6c0-0.4,0.3-0.8,0.8-0.8H5c0.4,0,0.8,0.3,0.8,0.8S5.4,2.4,5,2.4H2.2v2.8
            C2.2,5.5,1.9,5.9,1.5,5.9z"/>
        <path d="M13.2,6c-0.4,0-0.8-0.3-0.8-0.8V2.4H9.7C9.3,2.4,9,2,9,1.6s0.3-0.8,0.8-0.8h3.5c0.4,0,0.8,0.3,0.8,0.8v3.6
            C14,5.6,13.6,6,13.2,6z"/>
        <path d="M13.2,14H9.7C9.3,14,9,13.6,9,13.2s0.3-0.8,0.8-0.8h2.8V9.7c0-0.4,0.3-0.8,0.8-0.8S14,9.3,14,9.7v3.5
            C14,13.6,13.6,14,13.2,14z"/>
    </symbol>
  
    <symbol id="corner" viewBox="0 0 13.6 13.6">
        <path class="st0" d="M13.6,0H0v13.6C0,6.1,6.1,0,13.6,0z"/>
    </symbol>

    <symbol id="github" viewBox="0 0 98 98">
        <title>github</title>
        <desc>github logo</desc>
        <path d="M48.854 0C21.839 0 0 22 0 49.217c0 21.756 13.993 40.172 33.405 46.69 2.427.49 3.316-1.059 3.316-2.362 0-1.141-.08-5.052-.08-9.127-13.59 2.934-16.42-5.867-16.42-5.867-2.184-5.704-5.42-7.17-5.42-7.17-4.448-3.015.324-3.015.324-3.015 4.934.326 7.523 5.052 7.523 5.052 4.367 7.496 11.404 5.378 14.235 4.074.404-3.178 1.699-5.378 3.074-6.6-10.839-1.141-22.243-5.378-22.243-24.283 0-5.378 1.94-9.778 5.014-13.2-.485-1.222-2.184-6.275.486-13.038 0 0 4.125-1.304 13.426 5.052a46.97 46.97 0 0 1 12.214-1.63c4.125 0 8.33.571 12.213 1.63 9.302-6.356 13.427-5.052 13.427-5.052 2.67 6.763.97 11.816.485 13.038 3.155 3.422 5.015 7.822 5.015 13.2 0 18.905-11.404 23.06-22.324 24.283 1.78 1.548 3.316 4.481 3.316 9.126 0 6.6-.08 11.897-.08 13.526 0 1.304.89 2.853 3.316 2.364 19.412-6.52 33.405-24.935 33.405-46.691C97.707 22 75.788 0 48.854 0z"/>
    </symbol>

    <symbol id="instagram" viewBox="0 0 448 512">  
        <title>instagram</title>
        <desc>instagram logo</desc>   
        <path class="st0" d="M224.1,141c-63.6,0-114.9,51.3-114.9,114.9s51.3,114.9,114.9,114.9S339,319.5,339,255.9S287.7,141,224.1,141z
	    M224.1,330.6c-41.1,0-74.7-33.5-74.7-74.7s33.5-74.7,74.7-74.7s74.7,33.5,74.7,74.7S265.2,330.6,224.1,330.6L224.1,330.6z
	    M370.5,136.3c0,14.9-12,26.8-26.8,26.8c-14.9,0-26.8-12-26.8-26.8s12-26.8,26.8-26.8S370.5,121.5,370.5,136.3z M446.6,163.5
	    c-1.7-35.9-9.9-67.7-36.2-93.9c-26.2-26.2-58-34.4-93.9-36.2c-37-2.1-147.9-2.1-184.9,0C95.8,35.1,64,43.3,37.7,69.5
	    s-34.4,58-36.2,93.9c-2.1,37-2.1,147.9,0,184.9c1.7,35.9,9.9,67.7,36.2,93.9s58,34.4,93.9,36.2c37,2.1,147.9,2.1,184.9,0
	    c35.9-1.7,67.7-9.9,93.9-36.2c26.2-26.2,34.4-58,36.2-93.9C448.7,311.3,448.7,200.5,446.6,163.5L446.6,163.5z M398.8,388
	    c-7.8,19.6-22.9,34.7-42.6,42.6c-29.5,11.7-99.5,9-132.1,9s-102.7,2.6-132.1-9c-19.6-7.8-34.7-22.9-42.6-42.6
	    c-11.7-29.5-9-99.5-9-132.1s-2.6-102.7,9-132.1c7.8-19.6,22.9-34.7,42.6-42.6c29.5-11.7,99.5-9,132.1-9s102.7-2.6,132.1,9
	    c19.6,7.8,34.7,22.9,42.6,42.6c11.7,29.5,9,99.5,9,132.1S410.5,358.6,398.8,388z"/>
    </symbol>

    <symbol id="mute" viewBox="0 0 6.79 5.74">
        <title>mute</title>
        <desc>mute icon</desc>
        <g id="c"><path d="M3.17,.03L1.49,1.3H.15c-.08,0-.15,.07-.15,.15v2.86c0,.08,.07,.15,.15,.15H1.49l1.68,1.27c.09,.07,.23,0,.23-.1V.13c0-.11-.14-.17-.23-.1Z"/><polygon points="6.79 1.75 6.51 1.47 5.39 2.59 4.27 1.47 3.98 1.75 5.1 2.87 3.98 3.99 4.27 4.27 5.39 3.15 6.51 4.27 6.79 3.99 5.67 2.87 6.79 1.75"/></g>
    </symbol>

    <symbol id="unmute" viewBox="0 0 6.78 5.74">
        <title>unmute</title>
        <desc>unmute icon</desc>
        <g id="c"><path d="M4.29,4.34l-.28-.28c.66-.66,.66-1.72,0-2.38l.28-.28c.81,.81,.81,2.13,0,2.95Z"/><path d="M4.99,5.04l-.28-.28c1.04-1.04,1.04-2.73,0-3.77l.28-.28c1.19,1.2,1.19,3.14,0,4.33Z"/><path d="M5.62,5.67l-.28-.28c.67-.67,1.04-1.57,1.04-2.52s-.37-1.85-1.04-2.52l.28-.28c1.55,1.55,1.55,4.06,0,5.61Z"/><path d="M3.17,.03L1.49,1.3H.15c-.08,0-.15,.07-.15,.15v2.86c0,.08,.07,.15,.15,.15H1.49l1.68,1.27c.09,.07,.23,0,.23-.1V.13c0-.11-.14-.17-.23-.1Z"/></g>
    </symbol>

    <symbol id="lab-logo" viewBox="0 0 13 7">
        <title>sf-lab</title>
        <desc>studio flora lab logo</desc>  
        <g id="c"><g><polygon class="d" points="3 6 2 6 1 6 0 6 0 7 1 7 2 7 3 7 4 7 5 7 5 6 4 6 3 6"/><rect class="d" x="5" y="5" width="1" height="1"/><polygon class="d" points="4 5 5 5 5 4 4 4 3 4 3 5 4 5"/><rect class="d" x="2" y="3" width="1" height="1"/><polygon class="d" points="7 2 6 2 5 2 4 2 3 2 3 3 4 3 5 3 6 3 7 3 7 4 7 5 7 6 7 7 8 7 8 6 8 5 8 4 8 3 9 3 10 3 11 3 11 2 10 2 9 2 8 2 8 1 7 1 7 2"/><polygon class="d" points="12 0 11 0 10 0 9 0 8 0 8 1 9 1 10 1 11 1 12 1 13 1 13 0 12 0"/></g></g>
    </symbol>

    <symbol id="openmenu" viewBox="0 0 13.4 13.4">
        <path class="st0" d="M12.6,5.2H0.8C0.4,5.2,0,4.9,0,4.5s0.3-0.8,0.8-0.8h11.8c0.4,0,0.8,0.3,0.8,0.8S13,5.2,12.6,5.2z"/>
        <path class="st0" d="M12.6,9.7H0.8C0.4,9.7,0,9.3,0,8.9s0.3-0.8,0.8-0.8h11.8c0.4,0,0.8,0.3,0.8,0.8S13,9.7,12.6,9.7z"/>
    </symbol>

    <symbol id="reset-arrow" viewBox="0 0 6.8 6.8">
        <title>reset</title>
        <desc>reset arrow</desc> 
        <path d="M6.1,3.4c0,1.4-1.1,2.7-2.7,2.7C2,6.1,0.7,5,0.7,3.4c0-1.4,1.1-2.7,2.7-2.7c0.7,0,1.4,0.3,1.8,0.9L4.4,2.4h2.1V2.1l0,0l0,0
	    V0.3L5.8,1C5.1,0.4,4.4,0,3.4,0C1.6,0,0,1.6,0,3.4s1.6,3.4,3.4,3.4s3.4-1.6,3.4-3.4H6.1z"/>
    </symbol>

    <symbol id="tiktok" viewBox="0 0 448 512">
        <title>tiktok</title>
        <desc>tiktok logo</desc> 
        <path class="st0" d="M448,209.9c-44,0.1-87-13.6-122.8-39.2v178.7c0,89.8-72.8,162.5-162.6,162.5S0.1,439,0.1,349.3
	    S73,186.7,162.7,186.8c7.4,0,14.9,0.5,22.3,1.5v89.9c-39.3-12.4-81.2,9.5-93.6,48.8s9.5,81.2,48.8,93.6s81.2-9.5,93.6-48.8
	    c2.3-7.2,3.4-14.8,3.4-22.4V0h88c-0.1,7.4,0.6,14.9,1.9,22.2l0,0c6.2,33,25.7,62,53.9,80.2c19.9,13.1,43.2,20.1,67,20.1L448,209.9
	    L448,209.9z"/>
    </symbol>

    <symbol id="sf-logo" viewBox="0 0 719.9 409.2">
        <title>SF</title>
        <desc>Studio Flora logo</desc> 
        <g id="c">
	    <path class="st0" d="M0,405.7h192c91.2,0,134-27.5,134-89.8c0-51.4-23.6-79.4-75.5-86.1c-10.7-1.4-38.3-4.6-47-6
        c-26.3-4.2-27.8-14.1-27.8-26.1c0-7.9,10.5-14.2,29.6-14.2h188.5v225.7h65.4V183.5h137.7l0.1-49.6l-137.8-0.5v-11.8
        c0-40.2,32.5-74.6,132.1-74.6h128.6V0H576.8c-120,0-183,44.8-183,106.5v27c0,0-120.3,0.1-154.3,0.1c-74.6,0-125.9,13.9-125.9,57.8
        c-1,37.8,5.2,65.6,59.6,74.4c14.1,2.3,47.1,7.2,57.6,9.1c19.1,3.4,31.2,17.2,31.2,38.9c0,25.7-19.3,41.2-64.4,41.2H0V405.7z"/>
        </g>
    </symbol>
</svg>