<?xml version="1.0" encoding="utf-8"?>
<!-- Generator: Adobe Illustrator 27.2.0, SVG Export Plug-In . SVG Version: 6.00 Build 0)  -->
<svg version="1.1" id="b" xmlns="http://www.w3.org/2000/svg" xmlns:xlink="http://www.w3.org/1999/xlink" x="0px" y="0px"
	 viewBox="0 0 274 238" style="enable-background:new 0 0 274 238;" xml:space="preserve">
<style type="text/css">
	.st0{fill:#0c1410;}
	.st1{enable-background:new    ;}
	.st2{fill:#abebdc;}
	.st3{fill:#f5f8f6;}
	.st4{fill-rule:evenodd;clip-rule:evenodd;fill:#5D84C3;}
	.st5{fill:#113730;}
	.st6{fill:#4CADD2;}
</style>
<g id="c">
	<path class="st0" d="M12,0h250c6.6,0,12,5.4,12,12v214c0,6.6-5.4,12-12,12H12c-6.6,0-12-5.4-12-12V12C0,5.4,5.4,0,12,0z"/>
	<g>
		<g class="st1">
			<path class="st2" d="M97.9,22v25h-3.4V22h-8.9v-3h21.1v3H97.9z"/>
			<path class="st2" d="M112.6,21.5c-0.7,0-1.2-0.2-1.5-0.5c-0.3-0.3-0.5-0.8-0.5-1.3v-0.5c0-0.5,0.2-1,0.5-1.3
				c0.3-0.3,0.8-0.5,1.5-0.5c0.7,0,1.2,0.2,1.5,0.5c0.3,0.3,0.5,0.8,0.5,1.3v0.5c0,0.5-0.2,1-0.5,1.3
				C113.8,21.4,113.3,21.5,112.6,21.5z M111,26.4h3.2V47H111V26.4z"/>
			<path class="st2" d="M121,47V26.4h3.2v3.3h0.2c0.2-0.5,0.5-1,0.8-1.5c0.3-0.5,0.7-0.9,1.1-1.2c0.4-0.3,1-0.6,1.5-0.8
				c0.6-0.2,1.3-0.3,2.1-0.3c1.4,0,2.6,0.3,3.8,1c1.1,0.6,2,1.7,2.6,3.2h0.1c0.4-1.1,1.1-2.1,2.1-2.9c1-0.8,2.4-1.2,4.2-1.2
				c2.1,0,3.8,0.7,4.9,2.1c1.2,1.4,1.8,3.3,1.8,5.8V47h-3.2V34.3c0-1.8-0.4-3.2-1.1-4.2c-0.7-0.9-1.9-1.4-3.4-1.4
				c-0.6,0-1.2,0.1-1.8,0.2c-0.6,0.2-1.1,0.4-1.5,0.7c-0.5,0.3-0.8,0.7-1.1,1.2c-0.3,0.5-0.4,1.1-0.4,1.7V47h-3.2V34.3
				c0-1.8-0.4-3.2-1.1-4.2c-0.7-0.9-1.8-1.4-3.4-1.4c-0.6,0-1.3,0.1-1.8,0.2c-0.6,0.2-1.1,0.4-1.6,0.7c-0.5,0.3-0.8,0.7-1.1,1.2
				c-0.3,0.5-0.4,1.1-0.4,1.7V47H121z"/>
			<path class="st2" d="M163.7,47.5c-1.4,0-2.7-0.3-3.8-0.8c-1.1-0.5-2.1-1.2-2.9-2.2c-0.8-0.9-1.4-2.1-1.9-3.4
				c-0.4-1.3-0.7-2.8-0.7-4.5c0-1.6,0.2-3.1,0.7-4.4c0.4-1.3,1.1-2.5,1.9-3.4s1.8-1.7,2.9-2.2c1.1-0.5,2.4-0.8,3.8-0.8
				c1.4,0,2.6,0.3,3.7,0.8s2,1.2,2.8,2.1c0.8,0.9,1.4,1.9,1.8,3.2s0.6,2.6,0.6,4v1.5h-14.8v1c0,0.9,0.1,1.7,0.4,2.5
				c0.3,0.8,0.7,1.4,1.2,2c0.5,0.6,1.2,1,1.9,1.3s1.6,0.5,2.6,0.5c1.3,0,2.4-0.3,3.4-0.9c1-0.6,1.7-1.5,2.3-2.6l2.3,1.7
				c-0.7,1.4-1.7,2.6-3.1,3.4C167.4,47,165.7,47.5,163.7,47.5z M163.7,28.6c-0.9,0-1.7,0.2-2.4,0.5c-0.7,0.3-1.3,0.7-1.9,1.3
				c-0.5,0.6-0.9,1.2-1.2,2c-0.3,0.8-0.4,1.6-0.4,2.5V35h11.4v-0.4c0-1.8-0.5-3.3-1.5-4.4S165.4,28.6,163.7,28.6z"/>
			<path class="st2" d="M177.9,47V26.4h3.2v3.8h0.2c0.4-1,1-1.9,2-2.6c1-0.8,2.3-1.2,4-1.2h1.2v3.2h-1.9c-1.7,0-3.1,0.3-4.1,1
				c-1,0.7-1.5,1.5-1.5,2.5v14H177.9z"/>
		</g>
	</g>
	<path class="st2" d="M12,64h250c5.5,0,10,4.5,10,10v152c0,5.5-4.5,10-10,10H12c-5.5,0-10-4.5-10-10V74C2,68.5,6.5,64,12,64z"/>
	<path class="st3" d="M36,86h202c6.6,0,12,5.4,12,12v32c0,6.6-5.4,12-12,12H36c-6.6,0-12-5.4-12-12V98C24,91.4,29.4,86,36,86z"/>
	<path class="st4" d="M55,95v19l17.9-6.2c0.7,1.9,1.1,4.1,1.1,6.2c0,10.5-8.5,19-19,19s-19-8.5-19-19S44.5,95,55,95z"/>
	<g>
		<g class="st1">
			<path class="st5" d="M110,129.5c-3.3,0-5.8-1.3-7.3-3.8c-1.5-2.5-2.3-6.1-2.3-10.6s0.8-8.1,2.3-10.6c1.5-2.5,4-3.8,7.3-3.8
				c3.3,0,5.8,1.3,7.3,3.8s2.3,6.1,2.3,10.6s-0.8,8.1-2.3,10.6C115.8,128.2,113.3,129.5,110,129.5z M110,126.5c1.1,0,2-0.2,2.8-0.7
				s1.4-1.1,1.9-1.9c0.5-0.8,0.8-1.8,1.1-2.9s0.3-2.4,0.3-3.7v-4.5c0-1.4-0.1-2.6-0.3-3.7s-0.6-2.1-1.1-2.9
				c-0.5-0.8-1.1-1.5-1.9-1.9c-0.8-0.5-1.7-0.7-2.8-0.7s-2,0.2-2.8,0.7c-0.8,0.5-1.4,1.1-1.9,1.9c-0.5,0.8-0.8,1.8-1.1,2.9
				s-0.3,2.4-0.3,3.7v4.5c0,1.4,0.1,2.6,0.3,3.7s0.6,2.1,1.1,2.9c0.5,0.8,1.1,1.5,1.9,1.9S108.9,126.5,110,126.5z"/>
			<path class="st5" d="M134,129.5c-3.3,0-5.8-1.3-7.3-3.8c-1.5-2.5-2.3-6.1-2.3-10.6s0.8-8.1,2.3-10.6c1.5-2.5,4-3.8,7.3-3.8
				c3.3,0,5.8,1.3,7.3,3.8c1.5,2.5,2.3,6.1,2.3,10.6s-0.8,8.1-2.3,10.6C139.8,128.2,137.3,129.5,134,129.5z M134,126.5
				c1.1,0,2-0.2,2.8-0.7s1.4-1.1,1.9-1.9c0.5-0.8,0.8-1.8,1.1-2.9c0.2-1.1,0.3-2.4,0.3-3.7v-4.5c0-1.4-0.1-2.6-0.3-3.7
				c-0.2-1.1-0.6-2.1-1.1-2.9c-0.5-0.8-1.1-1.5-1.9-1.9c-0.8-0.5-1.7-0.7-2.8-0.7c-1.1,0-2,0.2-2.8,0.7c-0.8,0.5-1.4,1.1-1.9,1.9
				c-0.5,0.8-0.8,1.8-1.1,2.9s-0.3,2.4-0.3,3.7v4.5c0,1.4,0.1,2.6,0.3,3.7s0.6,2.1,1.1,2.9c0.5,0.8,1.1,1.5,1.9,1.9
				C132,126.3,132.9,126.5,134,126.5z"/>
		</g>
		<g class="st1">
			<path class="st5" d="M179.5,112.8c1.9,0,3.3-0.4,4.3-1.3c0.9-0.9,1.4-2,1.4-3.3v-0.3c0-1.5-0.5-2.6-1.4-3.3
				c-0.9-0.7-2.1-1.1-3.6-1.1c-1.4,0-2.6,0.3-3.5,0.9c-0.9,0.6-1.7,1.5-2.2,2.5l-2.5-1.9c0.3-0.6,0.8-1.1,1.3-1.7
				c0.5-0.5,1.1-1,1.7-1.4c0.7-0.4,1.4-0.8,2.3-1c0.9-0.3,1.9-0.4,3-0.4c1.2,0,2.3,0.2,3.3,0.5c1,0.3,1.9,0.8,2.7,1.4
				s1.4,1.3,1.8,2.2c0.4,0.9,0.7,1.9,0.7,3c0,0.9-0.1,1.7-0.4,2.4c-0.3,0.7-0.7,1.3-1.1,1.9c-0.5,0.5-1,1-1.7,1.4
				c-0.7,0.4-1.4,0.7-2.1,0.8v0.2c0.7,0.2,1.5,0.4,2.2,0.8c0.7,0.4,1.3,0.8,1.9,1.4c0.5,0.6,1,1.3,1.3,2.1c0.3,0.8,0.5,1.7,0.5,2.8
				c0,1.2-0.2,2.3-0.7,3.3c-0.5,1-1.1,1.9-1.9,2.6c-0.8,0.7-1.8,1.3-3,1.7c-1.2,0.4-2.5,0.6-3.9,0.6c-1.2,0-2.3-0.1-3.2-0.4
				c-0.9-0.3-1.8-0.6-2.5-1.1c-0.7-0.4-1.4-0.9-1.9-1.5c-0.5-0.6-1-1.1-1.5-1.8l2.5-1.9c0.3,0.6,0.7,1.1,1.1,1.5
				c0.4,0.5,0.9,0.8,1.4,1.2c0.5,0.3,1.1,0.6,1.7,0.7c0.6,0.2,1.4,0.3,2.2,0.3c2,0,3.5-0.4,4.5-1.3c1-0.9,1.5-2.2,1.5-3.8V121
				c0-1.7-0.5-2.9-1.5-3.8c-1-0.9-2.5-1.4-4.5-1.4h-3.3v-3H179.5z"/>
			<path class="st5" d="M205.1,129.5c-3.3,0-5.8-1.3-7.3-3.8c-1.5-2.5-2.3-6.1-2.3-10.6s0.8-8.1,2.3-10.6c1.5-2.5,4-3.8,7.3-3.8
				c3.3,0,5.8,1.3,7.3,3.8c1.5,2.5,2.3,6.1,2.3,10.6s-0.8,8.1-2.3,10.6C210.8,128.2,208.4,129.5,205.1,129.5z M205.1,126.5
				c1.1,0,2-0.2,2.8-0.7s1.4-1.1,1.9-1.9c0.5-0.8,0.8-1.8,1.1-2.9c0.2-1.1,0.3-2.4,0.3-3.7v-4.5c0-1.4-0.1-2.6-0.3-3.7
				c-0.2-1.1-0.6-2.1-1.1-2.9c-0.5-0.8-1.1-1.5-1.9-1.9c-0.8-0.5-1.7-0.7-2.8-0.7c-1.1,0-2,0.2-2.8,0.7c-0.8,0.5-1.4,1.1-1.9,1.9
				c-0.5,0.8-0.8,1.8-1.1,2.9s-0.3,2.4-0.3,3.7v4.5c0,1.4,0.1,2.6,0.3,3.7s0.6,2.1,1.1,2.9c0.5,0.8,1.1,1.5,1.9,1.9
				C203,126.3,204,126.5,205.1,126.5z"/>
		</g>
	</g>
	<g class="st1">
		<path class="st5" d="M148,111.2h1.9v7.4h0.1c0.3-0.7,0.7-1.3,1.3-1.7c0.6-0.4,1.3-0.6,2.2-0.6c1.3,0,2.3,0.4,3,1.2s1.1,2,1.1,3.5
			v7.9h-1.9v-7.6c0-2.2-0.9-3.3-2.8-3.3c-0.4,0-0.8,0-1.1,0.1c-0.4,0.1-0.7,0.2-1,0.4s-0.5,0.4-0.7,0.7s-0.3,0.6-0.3,1v8.6H148
			V111.2z"/>
	</g>
	<g class="st1">
		<path class="st5" d="M219.1,129v-12.4h1.9v2h0.1c0.1-0.3,0.3-0.6,0.5-0.9c0.2-0.3,0.4-0.5,0.7-0.7s0.6-0.4,0.9-0.5
			c0.4-0.1,0.8-0.2,1.2-0.2c0.8,0,1.6,0.2,2.3,0.6c0.7,0.4,1.2,1,1.5,1.9h0c0.2-0.7,0.6-1.2,1.3-1.7c0.6-0.5,1.5-0.7,2.5-0.7
			c1.3,0,2.3,0.4,3,1.2s1.1,2,1.1,3.5v7.9h-1.9v-7.6c0-1.1-0.2-1.9-0.6-2.5s-1.1-0.8-2.1-0.8c-0.4,0-0.7,0-1.1,0.1
			c-0.3,0.1-0.7,0.2-0.9,0.4c-0.3,0.2-0.5,0.4-0.6,0.7s-0.2,0.6-0.2,1v8.6h-1.9v-7.6c0-1.1-0.2-1.9-0.6-2.5s-1.1-0.8-2-0.8
			c-0.4,0-0.8,0-1.1,0.1c-0.4,0.1-0.7,0.2-0.9,0.4c-0.3,0.2-0.5,0.4-0.7,0.7s-0.3,0.6-0.3,1v8.6H219.1z"/>
	</g>
	<path class="st6" d="M36,156h34c6.6,0,12,5.4,12,12v34c0,6.6-5.4,12-12,12H36c-6.6,0-12-5.4-12-12v-34C24,161.4,29.4,156,36,156z"
		/>
	<path class="st3" d="M63.8,185.5c-0.2,5.8-5,10.4-10.8,10.4s-10.9-4.8-10.9-10.9s4.8-10.9,10.9-10.9c2.7,0,5.3,1,7.8,3l0.4,0.4
		l-4.5,4.5h9.5v-9.5l-3.2,3.2l-0.3-0.3c-2.4-2.1-5.3-4-9.6-4c-7.2,0-13.6,6.4-13.6,13.6s6.3,13.6,13.6,13.6s13.3-6.1,13.6-13.1
		L63.8,185.5L63.8,185.5z"/>
	<path class="st6" d="M105,156h133c6.6,0,12,5.4,12,12v34c0,6.6-5.4,12-12,12H105c-6.6,0-12-5.4-12-12v-34
		C93,161.4,98.4,156,105,156z"/>
	<g>
		<g class="st1">
			<path class="st3" d="M135.8,180.1h2.2v2.3h0.1c0.4-0.9,0.9-1.6,1.6-2c0.7-0.4,1.6-0.7,2.6-0.7c0.9,0,1.7,0.2,2.4,0.5
				c0.7,0.4,1.3,0.9,1.9,1.5c0.5,0.7,0.9,1.4,1.2,2.4c0.3,0.9,0.4,2,0.4,3.1s-0.1,2.2-0.4,3.1s-0.7,1.7-1.2,2.4
				c-0.5,0.7-1.1,1.2-1.9,1.5c-0.7,0.4-1.5,0.5-2.4,0.5c-2,0-3.4-0.9-4.2-2.7h-0.1v7.9h-2.2V180.1z M141.8,192.8
				c1.3,0,2.3-0.4,3-1.2c0.7-0.8,1.1-1.8,1.1-3.1V186c0-1.3-0.4-2.3-1.1-3.1c-0.7-0.8-1.7-1.2-3-1.2c-0.5,0-1,0.1-1.4,0.2
				c-0.5,0.1-0.9,0.3-1.2,0.6s-0.6,0.5-0.8,0.9c-0.2,0.3-0.3,0.7-0.3,1.1v5.4c0,0.5,0.1,0.9,0.3,1.3c0.2,0.4,0.5,0.7,0.8,0.9
				s0.7,0.4,1.2,0.6C140.8,192.8,141.3,192.8,141.8,192.8z"/>
			<path class="st3" d="M162.6,194.5c-0.8,0-1.4-0.2-1.8-0.7s-0.6-1-0.7-1.7h-0.1c-0.3,0.9-0.8,1.6-1.6,2c-0.7,0.4-1.6,0.7-2.6,0.7
				c-1.5,0-2.7-0.4-3.6-1.2s-1.3-1.8-1.3-3.2c0-1.4,0.5-2.4,1.5-3.1c1-0.7,2.6-1.1,4.7-1.1h2.9v-1.4c0-1-0.3-1.8-0.8-2.4
				c-0.6-0.5-1.4-0.8-2.6-0.8c-0.9,0-1.6,0.2-2.2,0.6c-0.6,0.4-1.1,0.9-1.5,1.6l-1.3-1.3c0.4-0.8,1-1.5,1.9-2s1.9-0.8,3.2-0.8
				c1.8,0,3.1,0.4,4.1,1.3c1,0.9,1.5,2,1.5,3.6v7.9h1.7v2H162.6z M156.1,192.9c0.6,0,1.1-0.1,1.5-0.2c0.5-0.1,0.9-0.3,1.2-0.6
				c0.3-0.2,0.6-0.5,0.8-0.8s0.3-0.7,0.3-1v-2.4h-3c-1.3,0-2.2,0.2-2.8,0.6c-0.6,0.4-0.9,0.9-0.9,1.6v0.6c0,0.7,0.3,1.3,0.8,1.7
				C154.5,192.7,155.2,192.9,156.1,192.9z"/>
			<path class="st3" d="M175.9,192.2h-0.1c-0.1,0.3-0.3,0.7-0.5,1c-0.2,0.3-0.5,0.6-0.8,0.9c-0.3,0.2-0.7,0.4-1.1,0.6
				s-1,0.2-1.6,0.2c-1.5,0-2.7-0.5-3.6-1.4c-0.9-1-1.3-2.3-1.3-4.1v-9.3h2.2v8.9c0,2.6,1.1,3.9,3.3,3.9c0.4,0,0.9-0.1,1.3-0.2
				s0.8-0.3,1.1-0.5c0.3-0.2,0.6-0.5,0.8-0.9c0.2-0.3,0.3-0.8,0.3-1.2v-10h2.2v14.4h-2.2V192.2z"/>
			<path class="st3" d="M187.3,194.8c-1.3,0-2.5-0.3-3.4-0.8c-0.9-0.5-1.7-1.2-2.3-2.1l1.6-1.3c0.6,0.7,1.2,1.3,1.9,1.6
				c0.7,0.4,1.5,0.6,2.4,0.6c1,0,1.7-0.2,2.2-0.6c0.5-0.4,0.8-1,0.8-1.7c0-0.6-0.2-1-0.5-1.4c-0.4-0.4-1-0.7-2-0.8l-1.1-0.2
				c-0.7-0.1-1.3-0.2-1.8-0.4c-0.6-0.2-1-0.5-1.5-0.8c-0.4-0.3-0.7-0.7-1-1.2s-0.3-1.1-0.3-1.7c0-0.7,0.1-1.3,0.4-1.9
				c0.3-0.5,0.6-1,1.1-1.3c0.5-0.4,1-0.6,1.6-0.8c0.6-0.2,1.3-0.3,2-0.3c1.2,0,2.2,0.2,3,0.6c0.8,0.4,1.5,1,2.1,1.7l-1.5,1.3
				c-0.3-0.4-0.8-0.9-1.4-1.2s-1.4-0.5-2.3-0.5s-1.6,0.2-2.1,0.6c-0.5,0.4-0.7,0.9-0.7,1.6c0,0.7,0.2,1.2,0.7,1.5
				c0.5,0.3,1.2,0.6,2.1,0.7l1.1,0.2c1.6,0.2,2.7,0.7,3.4,1.4s1,1.6,1,2.7c0,1.4-0.5,2.5-1.4,3.3
				C190.2,194.4,188.9,194.8,187.3,194.8z"/>
			<path class="st3" d="M202,194.8c-1,0-1.9-0.2-2.7-0.5c-0.8-0.4-1.5-0.9-2-1.5c-0.6-0.7-1-1.5-1.3-2.4c-0.3-0.9-0.5-2-0.5-3.1
				c0-1.1,0.2-2.2,0.5-3.1c0.3-0.9,0.7-1.7,1.3-2.4c0.6-0.7,1.2-1.2,2-1.5c0.8-0.4,1.7-0.5,2.7-0.5c1,0,1.8,0.2,2.6,0.5
				c0.8,0.4,1.4,0.8,2,1.5c0.5,0.6,1,1.4,1.2,2.2c0.3,0.9,0.4,1.8,0.4,2.8v1.1h-10.4v0.7c0,0.6,0.1,1.2,0.3,1.7s0.5,1,0.8,1.4
				c0.4,0.4,0.8,0.7,1.3,0.9c0.5,0.2,1.1,0.3,1.8,0.3c0.9,0,1.7-0.2,2.4-0.6s1.2-1,1.6-1.8l1.6,1.2c-0.5,1-1.2,1.8-2.2,2.4
				S203.3,194.8,202,194.8z M202,181.6c-0.6,0-1.2,0.1-1.7,0.3c-0.5,0.2-0.9,0.5-1.3,0.9c-0.4,0.4-0.6,0.8-0.9,1.4
				c-0.2,0.5-0.3,1.1-0.3,1.7v0.2h8v-0.3c0-1.3-0.3-2.3-1-3.1C204.1,182,203.1,181.6,202,181.6z"/>
		</g>
	</g>
</g>
</svg>
